<svg width="32" height="32" viewBox="0 0 32 32" fill="none" xmlns="http://www.w3.org/2000/svg">
<path d="M2 12.1333C2 8.58633 2 6.81283 2.69029 5.45806C3.29749 4.26637 4.26637 3.29749 5.45806 2.69029C6.81283 2 8.58633 2 12.1333 2H19.8667C23.4137 2 25.1872 2 26.5419 2.69029C27.7336 3.29749 28.7025 4.26637 29.3097 5.45806C30 6.81283 30 8.58633 30 12.1333V19.8667C30 23.4137 30 25.1872 29.3097 26.5419C28.7025 27.7336 27.7336 28.7025 26.5419 29.3097C25.1872 30 23.4137 30 19.8667 30H12.1333C8.58633 30 6.81283 30 5.45806 29.3097C4.26637 28.7025 3.29749 27.7336 2.69029 26.5419C2 25.1872 2 23.4137 2 19.8667V12.1333Z" fill="#242424"/>
<path d="M9.86669 16.4C5.96671 19.2704 5.20001 23.4667 5.20001 26.9667C5.37779 25.9222 6.19335 23.4733 8.03335 22.0333C10.7667 19.8942 15.7667 20.5989 21.2334 16.9667C26.7 13.3344 27.2334 8.60001 26.5334 4.96667C26.047 8.47256 24.3872 10.0005 22.1 11.3667C17.1334 14.3333 14.0334 13.3333 9.86669 16.4Z" fill="url(#paint0_linear_510_10043)"/>
<path d="M9.86669 16.4C5.96671 19.2704 5.20001 23.4667 5.20001 26.9667C5.37779 25.9222 6.19335 23.4733 8.03335 22.0333C10.7667 19.8942 15.7667 20.5989 21.2334 16.9667C26.7 13.3344 27.2334 8.60001 26.5334 4.96667C26.047 8.47256 24.3872 10.0005 22.1 11.3667C17.1334 14.3333 14.0334 13.3333 9.86669 16.4Z" fill="url(#paint1_linear_510_10043)"/>
<path d="M5.24664 25.532C5.46065 22.3695 6.48752 18.887 9.86667 16.4C12.0388 14.8013 13.9211 14.3078 15.9291 13.7813C17.1009 13.4741 18.3155 13.1556 19.6556 12.5997C19.1667 13.0667 16.8436 14.1567 15.0913 14.8849C13.3435 15.6113 11.5009 16.3772 9.96668 17.4C6.88849 19.4521 5.63687 23.0225 5.24664 25.532Z" fill="url(#paint2_linear_510_10043)"/>
<path d="M5.24664 25.532C5.46065 22.3695 6.48752 18.887 9.86667 16.4C12.0388 14.8013 13.9211 14.3078 15.9291 13.7813C17.1009 13.4741 18.3155 13.1556 19.6556 12.5997C19.1667 13.0667 16.8436 14.1567 15.0913 14.8849C13.3435 15.6113 11.5009 16.3772 9.96668 17.4C6.88849 19.4521 5.63687 23.0225 5.24664 25.532Z" fill="url(#paint3_linear_510_10043)"/>
<path d="M24.2177 14.3709C23.8344 14.7463 23.4071 15.0825 22.9334 15.3667C20.8 16.6467 18.5325 17.0595 16.3261 17.4611C14.5679 17.7812 12.8484 18.0942 11.2667 18.8333C7.70029 20.4999 5.50034 23.9662 5.20011 26.9661C5.20009 26.9662 5.20007 26.9663 5.20005 26.9665C5.20004 26.9659 5.20002 26.9654 5.20001 26.9648C5.20003 26.7359 5.20333 26.5039 5.21058 26.2695C5.22875 25.8977 5.26719 25.4857 5.3308 25.0463C5.80164 22.5792 7.08221 19.323 9.96671 17.4C11.1878 16.5859 12.6042 15.9347 14.0127 15.3365C15.2513 14.9298 16.3677 14.6768 17.4313 14.4356C19.1056 14.056 20.6491 13.7061 22.3334 12.8333C25.8675 11.002 26.7934 7.2388 26.5445 5.02515C27.0729 7.83003 26.8593 11.2799 24.2177 14.3709Z" fill="url(#paint4_linear_510_10043)"/>
<path d="M24.2176 14.371C23.8343 14.7464 23.407 15.0825 22.9334 15.3667C20.8 16.6467 18.5325 17.0595 16.3261 17.4611C14.5678 17.7812 12.8484 18.0942 11.2667 18.8333C9.21563 19.7918 7.61653 21.3455 6.5708 23.0634C7.49349 21.7669 8.89913 20.3185 10.6334 19.7667C12.3256 19.2282 13.9397 19.1726 15.6167 19.1148C16.0973 19.0982 16.5831 19.0815 17.0773 19.0532C18.4094 18.5682 19.8055 17.9154 21.2333 16.9667C22.4641 16.1489 23.4448 15.2753 24.2176 14.371Z" fill="url(#paint5_linear_510_10043)"/>
<path d="M24.2176 14.371C23.8343 14.7464 23.407 15.0825 22.9334 15.3667C20.8 16.6467 18.5325 17.0595 16.3261 17.4611C14.5678 17.7812 12.8484 18.0942 11.2667 18.8333C9.21563 19.7918 7.61653 21.3455 6.5708 23.0634C7.49349 21.7669 8.89913 20.3185 10.6334 19.7667C12.3256 19.2282 13.9397 19.1726 15.6167 19.1148C16.0973 19.0982 16.5831 19.0815 17.0773 19.0532C18.4094 18.5682 19.8055 17.9154 21.2333 16.9667C22.4641 16.1489 23.4448 15.2753 24.2176 14.371Z" fill="url(#paint6_linear_510_10043)"/>
<path d="M26.5445 5.02515C26.5408 5.00562 26.5371 4.98613 26.5333 4.96667C26.047 8.47256 24.3872 10.0005 22.1 11.3667C21.2336 11.8842 20.4239 12.281 19.6555 12.5998C19.1665 13.0667 16.8435 14.1567 15.0912 14.885L15.091 14.8851C14.7344 15.0333 14.3738 15.1831 14.0127 15.3365C15.2513 14.9298 16.3677 14.6767 17.4313 14.4356C19.1055 14.056 20.6491 13.7061 22.3333 12.8333C25.8674 11.002 26.7933 7.2388 26.5445 5.02515Z" fill="url(#paint7_linear_510_10043)"/>
<path d="M26.5445 5.02515C26.5408 5.00562 26.5371 4.98613 26.5333 4.96667C26.047 8.47256 24.3872 10.0005 22.1 11.3667C21.2336 11.8842 20.4239 12.281 19.6555 12.5998C19.1665 13.0667 16.8435 14.1567 15.0912 14.885L15.091 14.8851C14.7344 15.0333 14.3738 15.1831 14.0127 15.3365C15.2513 14.9298 16.3677 14.6767 17.4313 14.4356C19.1055 14.056 20.6491 13.7061 22.3333 12.8333C25.8674 11.002 26.7933 7.2388 26.5445 5.02515Z" fill="url(#paint8_linear_510_10043)"/>
<defs>
<linearGradient id="paint0_linear_510_10043" x1="17.4" y1="18.2" x2="5.86668" y2="26.4667" gradientUnits="userSpaceOnUse">
<stop stop-color="#FE5004"/>
<stop offset="0.602538" stop-color="#FFB915"/>
<stop offset="1" stop-color="#FFFC41"/>
</linearGradient>
<linearGradient id="paint1_linear_510_10043" x1="12.8333" y1="18.9" x2="12.9" y2="20.1" gradientUnits="userSpaceOnUse">
<stop stop-color="#FD3E00"/>
<stop offset="1" stop-color="#FD4400" stop-opacity="0"/>
</linearGradient>
<linearGradient id="paint2_linear_510_10043" x1="19.6667" y1="12" x2="3.4" y2="26.4667" gradientUnits="userSpaceOnUse">
<stop stop-color="#005FC6"/>
<stop offset="0.279756" stop-color="#23A4DF"/>
<stop offset="0.465158" stop-color="#3AC2B7"/>
<stop offset="0.640642" stop-color="#60EC7A"/>
<stop offset="0.818668" stop-color="#CFFDBD"/>
<stop offset="1" stop-color="#D0FCB6"/>
</linearGradient>
<linearGradient id="paint3_linear_510_10043" x1="16.3667" y1="14.7667" x2="14.9667" y2="13.5" gradientUnits="userSpaceOnUse">
<stop stop-color="#0061CB"/>
<stop offset="1" stop-color="#067EEA" stop-opacity="0"/>
</linearGradient>
<linearGradient id="paint4_linear_510_10043" x1="26.6" y1="5.00001" x2="5.20001" y2="26.9333" gradientUnits="userSpaceOnUse">
<stop stop-color="#8E55F1"/>
<stop offset="0.140795" stop-color="#8B48DF"/>
<stop offset="0.274905" stop-color="#E04DD9"/>
<stop offset="0.492309" stop-color="#F496C8"/>
<stop offset="0.633104" stop-color="#FAD2BA"/>
<stop offset="0.856964" stop-color="#FEF7E5"/>
<stop offset="1" stop-color="#FFF5BF"/>
</linearGradient>
<linearGradient id="paint5_linear_510_10043" x1="24.5" y1="14.1667" x2="7.0333" y2="22.0667" gradientUnits="userSpaceOnUse">
<stop stop-color="#F41A73"/>
<stop offset="0.399909" stop-color="#FC50A3"/>
<stop offset="0.584511" stop-color="#FE9485"/>
<stop offset="0.703104" stop-color="#FFAF88"/>
<stop offset="1" stop-color="#FFC385"/>
</linearGradient>
<linearGradient id="paint6_linear_510_10043" x1="18.2" y1="16.6" x2="18.2333" y2="18.2" gradientUnits="userSpaceOnUse">
<stop stop-color="#9B0008"/>
<stop offset="1" stop-color="#EA115A" stop-opacity="0"/>
</linearGradient>
<linearGradient id="paint7_linear_510_10043" x1="26.6" y1="6.80001" x2="10.8333" y2="17.1" gradientUnits="userSpaceOnUse">
<stop stop-color="#231283"/>
<stop offset="0.362865" stop-color="#7053C6"/>
<stop offset="0.466353" stop-color="#7272DB"/>
<stop offset="0.634311" stop-color="#399EE9"/>
<stop offset="1" stop-color="#00CFFF"/>
</linearGradient>
<linearGradient id="paint8_linear_510_10043" x1="22.6667" y1="12" x2="23.3667" y2="12.9" gradientUnits="userSpaceOnUse">
<stop stop-color="#3F259D" stop-opacity="0"/>
<stop offset="1" stop-color="#412DAA"/>
</linearGradient>
</defs>
</svg>
