<svg width="100" height="100" viewBox="0 0 100 100" fill="none" xmlns="http://www.w3.org/2000/svg">
<path d="M50 44C46.6863 44 44 46.6863 44 50C44 53.3137 46.6863 56 50 56C53.3137 56 56 53.3137 56 50C56 46.6863 53.3137 44 50 44Z" fill="black"/>
<path fill-rule="evenodd" clip-rule="evenodd" d="M23 50C23 35.0883 35.0883 23 50 23C64.9117 23 77 35.0883 77 50C77 64.9117 64.9117 77 50 77C35.0883 77 23 64.9117 23 50ZM35 50C35 41.7157 41.7157 35 50 35C58.2843 35 65 41.7157 65 50C65 58.2843 58.2843 65 50 65C41.7157 65 35 58.2843 35 50Z" fill="black"/>
</svg>
