<svg width="100" height="100" viewBox="0 0 100 100" fill="none" xmlns="http://www.w3.org/2000/svg">
<path d="M23 68.0315C23.3147 64.3182 23.535 60.9511 23.6608 57.9301C23.8497 54.9091 23.9441 52.2657 23.9441 50C23.9441 47.7343 23.8497 45.0909 23.6608 42.0699C23.535 38.986 23.3147 35.6189 23 31.9685H25.6434C26.0839 35.1783 26.8706 37.8532 28.0035 39.993C29.1993 42.0699 30.7727 43.7378 32.7238 44.9965C34.7378 46.2552 37.1608 47.1364 39.993 47.6399C42.8252 48.1434 46.1608 48.3951 50 48.3951C53.8392 48.3951 57.1748 48.1434 60.007 47.6399C62.8392 47.1364 65.2308 46.2552 67.1818 44.9965C69.1958 43.7378 70.7692 42.0699 71.9021 39.993C73.0979 37.8532 73.9161 35.1783 74.3566 31.9685H77C76.6853 35.6189 76.4336 38.986 76.2448 42.0699C76.1189 45.0909 76.0559 47.7343 76.0559 50C76.0559 52.2657 76.1189 54.9091 76.2448 57.9301C76.4336 60.9511 76.6853 64.3182 77 68.0315H74.3566C73.9161 64.8217 73.0979 62.1783 71.9021 60.1014C70.7692 57.9615 69.1958 56.2622 67.1818 55.0035C65.2308 53.7448 62.8392 52.8636 60.007 52.3601C57.1748 51.8566 53.8392 51.6049 50 51.6049C46.1608 51.6049 42.8252 51.8566 39.993 52.3601C37.1608 52.8636 34.7378 53.7448 32.7238 55.0035C30.7727 56.2622 29.1993 57.9615 28.0035 60.1014C26.8706 62.1783 26.0839 64.8217 25.6434 68.0315H23ZM31.9685 77V74.3566C35.1783 73.9161 37.8217 73.1294 39.8986 71.9965C42.0385 70.8007 43.7378 69.2273 44.9965 67.2762C46.2552 65.2622 47.1364 62.8392 47.6399 60.007C48.1434 57.1748 48.3951 53.8392 48.3951 50C48.3951 46.1608 48.1434 42.8252 47.6399 39.993C47.1364 37.1608 46.2552 34.7692 44.9965 32.8182C43.7378 30.8042 42.0385 29.2308 39.8986 28.0979C37.8217 26.9021 35.1783 26.0839 31.9685 25.6434V23C35.6818 23.3147 39.049 23.5664 42.0699 23.7552C45.0909 23.8811 47.7343 23.9441 50 23.9441C52.2657 23.9441 54.9091 23.8811 57.9301 23.7552C61.014 23.5664 64.3811 23.3147 68.0315 23V25.6434C64.8217 26.0839 62.1469 26.9021 60.007 28.0979C57.9301 29.2308 56.2622 30.8042 55.0035 32.8182C53.7448 34.7692 52.8636 37.1608 52.3601 39.993C51.8566 42.8252 51.6049 46.1608 51.6049 50C51.6049 53.8392 51.8566 57.1748 52.3601 60.007C52.8636 62.8392 53.7448 65.2622 55.0035 67.2762C56.2622 69.2273 57.9301 70.8007 60.007 71.9965C62.1469 73.1294 64.8217 73.9161 68.0315 74.3566V77C64.3811 76.6853 61.014 76.465 57.9301 76.3392C54.9091 76.1504 52.2657 76.0559 50 76.0559C47.7343 76.0559 45.0909 76.1504 42.0699 76.3392C39.049 76.465 35.6818 76.6853 31.9685 77Z" fill="black"/>
</svg>
