<svg width="100" height="100" viewBox="0 0 100 100" fill="none" xmlns="http://www.w3.org/2000/svg">
<path d="M33.9514 77C31.9495 77 30.1159 76.5122 28.4505 75.5365C26.785 74.5439 25.4561 73.215 24.4636 71.5495C23.4878 69.8841 23 68.0505 23 66.0486C23 64.0299 23.4878 62.1878 24.4636 60.5224C25.4561 58.857 26.785 57.528 28.4505 56.5355C30.1159 55.543 31.9495 55.0467 33.9514 55.0467H39.8056V44.9028H33.9514C31.9495 44.9028 30.1159 44.415 28.4505 43.4393C26.785 42.4467 25.4561 41.1262 24.4636 39.4776C23.4878 37.8122 23 35.9701 23 33.9514C23 31.9327 23.4878 30.0991 24.4636 28.4505C25.4561 26.785 26.785 25.4645 28.4505 24.4888C30.1159 23.4963 31.9495 23 33.9514 23C35.9701 23 37.8121 23.4963 39.4776 24.4888C41.143 25.4645 42.472 26.785 43.4645 28.4505C44.457 30.0991 44.9533 31.9327 44.9533 33.9514V39.7551H55.0972V33.9514C55.0972 31.9327 55.585 30.0991 56.5608 28.4505C57.5533 26.785 58.8738 25.4645 60.5224 24.4888C62.1879 23.4963 64.0299 23 66.0486 23C68.0673 23 69.9009 23.4963 71.5495 24.4888C73.215 25.4645 74.5355 26.785 75.5112 28.4505C76.5037 30.0991 77 31.9327 77 33.9514C77 35.9701 76.5037 37.8122 75.5112 39.4776C74.5355 41.1262 73.215 42.4467 71.5495 43.4393C69.9009 44.415 68.0673 44.9028 66.0486 44.9028H60.2449V55.0467H66.0486C68.0673 55.0467 69.9009 55.543 71.5495 56.5355C73.215 57.528 74.5355 58.857 75.5112 60.5224C76.5037 62.1878 77 64.0299 77 66.0486C77 68.0505 76.5037 69.8841 75.5112 71.5495C74.5355 73.215 73.215 74.5439 71.5495 75.5365C69.9009 76.5122 68.0673 77 66.0486 77C64.0299 77 62.1879 76.5122 60.5224 75.5365C58.8738 74.5439 57.5533 73.215 56.5608 71.5495C55.585 69.8841 55.0972 68.0505 55.0972 66.0486V60.1944H44.9533V66.0486C44.9533 68.0505 44.457 69.8841 43.4645 71.5495C42.472 73.215 41.143 74.5439 39.4776 75.5365C37.8121 76.5122 35.9701 77 33.9514 77ZM33.9514 71.8523C35.028 71.8523 36.0037 71.5916 36.8785 71.0701C37.7701 70.5486 38.4766 69.8505 38.9981 68.9757C39.5364 68.0841 39.8056 67.1084 39.8056 66.0486V60.1944H33.9514C32.8916 60.1944 31.9159 60.4636 31.0243 61.0019C30.1495 61.5234 29.4514 62.2299 28.9299 63.1215C28.4084 63.9963 28.1477 64.972 28.1477 66.0486C28.1477 67.1084 28.4084 68.0841 28.9299 68.9757C29.4514 69.8505 30.1495 70.5486 31.0243 71.0701C31.9159 71.5916 32.8916 71.8523 33.9514 71.8523ZM33.9514 39.7551H39.8056V33.9514C39.8056 32.8748 39.5364 31.8991 38.9981 31.0243C38.4766 30.1495 37.7701 29.4514 36.8785 28.9299C36.0037 28.4084 35.028 28.1477 33.9514 28.1477C32.8916 28.1477 31.9159 28.4084 31.0243 28.9299C30.1495 29.4514 29.4514 30.1495 28.9299 31.0243C28.4084 31.8991 28.1477 32.8748 28.1477 33.9514C28.1477 35.028 28.4084 36.0122 28.9299 36.9037C29.4514 37.7785 30.1495 38.4766 31.0243 38.9981C31.9159 39.5028 32.8916 39.7551 33.9514 39.7551ZM60.2449 39.7551H66.0486C67.1252 39.7551 68.1009 39.5028 68.9757 38.9981C69.8505 38.4766 70.5486 37.7785 71.0701 36.9037C71.5916 36.0122 71.8523 35.028 71.8523 33.9514C71.8523 32.8748 71.5916 31.8991 71.0701 31.0243C70.5486 30.1495 69.8505 29.4514 68.9757 28.9299C68.1009 28.4084 67.1252 28.1477 66.0486 28.1477C64.972 28.1477 63.9879 28.4084 63.0963 28.9299C62.2215 29.4514 61.5234 30.1495 61.0019 31.0243C60.4972 31.8991 60.2449 32.8748 60.2449 33.9514V39.7551ZM66.0486 71.8523C67.1252 71.8523 68.1009 71.5916 68.9757 71.0701C69.8505 70.5486 70.5486 69.8505 71.0701 68.9757C71.5916 68.0841 71.8523 67.1084 71.8523 66.0486C71.8523 64.972 71.5916 63.9963 71.0701 63.1215C70.5486 62.2299 69.8505 61.5234 68.9757 61.0019C68.1009 60.4636 67.1252 60.1944 66.0486 60.1944H60.2449V66.0486C60.2449 67.1084 60.4972 68.0841 61.0019 68.9757C61.5234 69.8505 62.2215 70.5486 63.0963 71.0701C63.9879 71.5916 64.972 71.8523 66.0486 71.8523ZM44.9533 55.0467H55.0972V44.9028H44.9533V55.0467Z" fill="black"/>
</svg>
