<svg width="200" height="50" viewBox="0 0 200 50" fill="none" xmlns="http://www.w3.org/2000/svg">
<path d="M49.325 13L51.275 15.7L38.225 33.775H42.125L53.3 18.4L55.25 21.1L43.775 36.925H32L49.325 13ZM47.675 36.925H59.45L61.775 33.775L63.125 31.9L61.175 29.2L57.875 33.775H53.975L59.225 26.5L57.275 23.8L47.675 36.925Z" fill="#fff"/>
<path d="M163.475 20.2002C161.825 20.2002 160.775 20.5752 159.575 21.2502C159.05 20.5752 158.15 20.2002 156.8 20.2002C155.375 20.2002 154.4 20.7252 153.425 21.3252V20.3502H150.425V33.7752H153.575V23.6502C154.55 23.1252 155.3 22.9002 155.75 22.9002C157.1 22.9002 157.4 23.3502 157.4 25.2252V33.8502H160.55V25.1502C160.55 24.5502 160.55 23.9502 160.475 23.4252C161.3 22.9752 162.2 22.8252 162.65 22.8252C164 22.8252 164.375 23.2752 164.375 25.1502V33.7752H167.525V25.1502C167.375 22.3752 166.7 20.2002 163.475 20.2002Z" fill="#fff"/>
<path d="M118.025 27.7752C118.025 29.7252 117.5 31.1502 115.475 31.1502H113.225V31.0002V29.8752V28.6752V22.9752C113.9 22.9002 114.95 22.8252 115.475 22.8252C117.5 22.8252 118.025 24.2502 118.025 26.2002V27.7752ZM115.475 20.2002C114.875 20.2002 114.05 20.2752 113.225 20.3502V15.7002H110.075V28.6752V32.3502V32.5002V33.5502V33.7752H115.4H115.475C119.3 33.7752 121.175 31.5252 121.175 27.7752V26.2002C121.175 22.4502 119.375 20.2002 115.475 20.2002Z" fill="#fff"/>
<path d="M77.0749 25.9002H72.0499V25.8252C72.0499 23.9502 73.0999 22.9002 74.5999 22.9002C76.0999 22.9002 77.0749 23.9502 77.0749 25.8252V25.9002ZM74.5999 20.2002C70.9249 20.2002 68.8999 22.5252 68.8999 26.2752V28.0002C68.8999 32.6502 72.2749 34.0002 74.6749 34.0002C76.3999 34.0002 77.3749 33.9252 78.4999 33.7002C78.7249 33.6252 79.0249 33.6252 79.2499 33.5502L79.6999 33.4752V33.0252V32.9502V31.3752V31.0002H79.2499C79.1749 31.0002 79.1749 31.0002 79.0999 31.0002L78.3499 31.0752C77.3749 31.1502 76.1749 31.2252 74.8249 31.2252C72.5749 31.2252 71.9749 29.5752 71.9749 28.2252V28.1502H79.3999H79.7749H80.2249V27.5502V27.3252V26.2752C80.2249 22.6752 78.2749 20.2002 74.5999 20.2002Z" fill="#fff"/>
<path d="M131.6 25.9002H126.575V25.8252C126.575 23.9502 127.625 22.9002 129.125 22.9002C130.625 22.9002 131.6 23.9502 131.6 25.8252V25.9002ZM129.125 20.2002C125.45 20.2002 123.425 22.5252 123.425 26.2752V28.0002C123.425 32.6502 126.8 34.0002 129.2 34.0002C130.925 34.0002 131.9 33.9252 133.025 33.7002C133.25 33.6252 133.55 33.6252 133.775 33.5502L134.225 33.4752V33.0252V32.9502V31.3752V31.0002L133.7 31.0752C133.625 31.0752 133.625 31.0752 133.55 31.0752L132.8 31.1502C131.825 31.2252 130.625 31.3002 129.275 31.3002C127.025 31.3002 126.425 29.6502 126.425 28.3002V28.2252H133.85H134.225H134.675V27.6252V27.4002V26.3502C134.75 22.6752 132.8 20.2002 129.125 20.2002Z" fill="#fff"/>
<path d="M103.625 30.7752C102.95 31.1502 102.05 31.4502 101.225 31.4502C100.025 31.4502 99.5001 31.1502 99.5001 29.9502V29.8752C99.5001 28.5252 99.9501 27.8502 102.125 27.8502H103.625V30.7752ZM101.525 20.2002C100.1 20.2002 98.8251 20.3502 97.9251 20.5002H97.7751C97.7001 20.5002 97.6251 20.5002 97.5501 20.5752L97.1001 20.6502V21.0252V21.1002V22.6002V22.6752V23.0502L97.9251 22.9752C98.7501 22.9002 100.175 22.8252 101.525 22.8252C102.95 22.8252 103.625 23.2002 103.625 24.7752V25.7502H102.125C98.0001 25.7502 96.3501 27.1752 96.3501 29.8752V29.9502C96.3501 33.1752 98.5251 33.9252 100.475 33.9252C101.6 33.9252 102.725 33.5502 103.85 32.8752V32.9502V33.2502V33.7002H104.3H106.25H106.7V33.2502V32.9502V24.7002C106.775 21.7002 104.9 20.2002 101.525 20.2002Z" fill="#fff"/>
<path d="M144.2 30.7752C143.525 31.1502 142.625 31.4502 141.8 31.4502C140.6 31.4502 140.075 31.1502 140.075 29.9502V29.8752C140.075 28.5252 140.525 27.8502 142.7 27.8502H144.2V30.7752ZM142.1 20.2002C140.675 20.2002 139.4 20.3502 138.5 20.5002H138.35C138.275 20.5002 138.2 20.5002 138.125 20.5752L137.675 20.6502V21.0252V21.1002V22.6002V22.6752V23.0502L138.5 22.9752C139.325 22.9002 140.75 22.8252 142.1 22.8252C143.525 22.8252 144.2 23.2002 144.2 24.7752V25.7502H142.7C138.575 25.7502 136.925 27.1752 136.925 29.8752V29.9502C136.925 33.1752 139.1 33.9252 141.05 33.9252C142.175 33.9252 143.3 33.5502 144.425 32.8752V32.9502V33.2502V33.7002H144.875H146.9H147.35V33.2502V32.9502V24.7002C147.275 21.7002 145.475 20.2002 142.1 20.2002Z" fill="#fff"/>
<path d="M91.4751 20.3506L88.1751 24.8506L84.9501 20.3506H81.7251L86.6001 27.1006L81.7251 33.7756H84.9501L88.1751 29.2756L91.4751 33.7756H94.7001L89.8251 27.1006L94.7001 20.3506H91.4751Z" fill="#fff"/>
</svg>
