<svg width="200" height="50" viewBox="0 0 200 50" fill="none" xmlns="http://www.w3.org/2000/svg">
<path fill-rule="evenodd" clip-rule="evenodd" d="M71.6218 33.1686C71.0951 32.9679 70.7502 32.5427 70.7502 31.9759C70.7502 31.2898 71.3171 30.7241 72.0068 30.7241C72.2099 30.7241 72.3729 30.7642 72.5146 30.8245C73.4551 31.2582 74.4797 31.4791 75.5154 31.4716C77.6257 31.4716 78.6189 30.4619 78.6189 28.5204V27.9949C77.706 29.0873 76.7128 29.7545 75.0701 29.7545C72.5347 29.7545 70.2424 27.9146 70.2424 24.7001V24.6611C70.2424 21.4265 72.5748 19.6078 75.0701 19.6078C76.753 19.6078 77.7462 20.3164 78.5776 21.2257V21.2045C78.5776 20.3754 79.2672 19.6893 80.1199 19.6893C80.9702 19.6893 81.6598 20.3754 81.6598 21.2245V28.198C81.6598 30.1383 81.1945 31.5519 80.2817 32.4613C79.2672 33.4733 77.706 33.9174 75.5969 33.9174C74.2357 33.9293 72.8853 33.675 71.6218 33.1686ZM78.6189 24.7012V24.6611C78.6189 23.1849 77.4616 22.1539 75.9618 22.1539C74.462 22.1539 73.3259 23.1849 73.3259 24.6611V24.7012C73.3259 26.1963 74.462 27.2072 75.9618 27.2072C77.4616 27.2072 78.6189 26.1763 78.6189 24.7012ZM83.4053 21.2245C83.4053 20.3754 84.095 19.6893 84.9464 19.6893C85.7991 19.6893 86.4876 20.3754 86.4876 21.2245V21.7087C86.934 20.6589 87.6638 19.6893 88.5778 19.6893C89.5309 19.6893 90.0776 20.3152 90.0776 21.1844C90.0776 21.9922 89.5509 22.4775 88.9215 22.6192C87.3603 22.9841 86.4887 24.1757 86.4887 26.3581V29.2278C86.4887 30.0769 85.7991 30.7642 84.9464 30.7642C84.7444 30.7647 84.5443 30.7254 84.3575 30.6484C84.1707 30.5715 84.0008 30.4586 83.8577 30.316C83.7146 30.1734 83.601 30.004 83.5233 29.8175C83.4457 29.631 83.4056 29.431 83.4053 29.229V21.2245ZM89.7127 27.5308V27.4906C89.7127 25.1252 91.5172 24.034 94.094 24.034C95.1888 24.034 95.98 24.2159 96.7512 24.478V24.2962C96.7512 23.0243 95.9599 22.3157 94.4188 22.3157C93.6974 22.308 92.979 22.4104 92.2884 22.6192C92.1458 22.6721 91.9952 22.6996 91.8432 22.7007C91.6765 22.7039 91.5109 22.6737 91.356 22.6121C91.2011 22.5505 91.06 22.4586 90.941 22.3418C90.822 22.2251 90.7275 22.0857 90.663 21.932C90.5985 21.7783 90.5653 21.6133 90.5654 21.4466C90.5654 20.901 90.9078 20.4368 91.3968 20.2538C92.3699 19.8901 93.4244 19.6893 94.864 19.6893C96.5469 19.6893 97.7644 20.1333 98.5344 20.901C99.3457 21.7087 99.7118 22.9027 99.7118 24.3576V29.2881C99.7118 30.1171 99.0422 30.7642 98.2108 30.7642C97.318 30.7642 96.7299 30.1383 96.7299 29.4912V29.4699C95.98 30.2989 94.9467 30.8445 93.4445 30.8445C91.3968 30.8445 89.7127 29.673 89.7127 27.5308ZM96.7913 26.8222V26.2778C96.1715 26.0054 95.5009 25.8674 94.8239 25.8727C93.5048 25.8727 92.6946 26.3983 92.6946 27.369V27.4092C92.6946 28.2382 93.3843 28.7236 94.3775 28.7236C95.8182 28.7236 96.7913 27.9347 96.7913 26.8222ZM101.355 21.2245C101.355 20.3754 102.044 19.6893 102.897 19.6893C103.748 19.6893 104.438 20.3754 104.438 21.2245V21.3462C105.147 20.4368 106.081 19.6078 107.642 19.6078C109.061 19.6078 110.136 20.2337 110.704 21.3261C111.657 20.2148 112.794 19.6078 114.273 19.6078C116.565 19.6078 117.946 20.9824 117.946 23.59V29.2278C117.946 30.0769 117.255 30.7642 116.403 30.7642C116.201 30.7647 116.001 30.7254 115.814 30.6485C115.627 30.5716 115.457 30.4586 115.314 30.316C115.171 30.1735 115.057 30.0041 114.98 29.8176C114.902 29.6311 114.861 29.4311 114.861 29.229V24.5997C114.861 23.1448 114.211 22.3972 113.057 22.3972C111.9 22.3972 111.191 23.1448 111.191 24.5997V29.229C111.191 30.0769 110.502 30.7642 109.649 30.7642C109.242 30.7649 108.85 30.6035 108.561 30.3156C108.272 30.0278 108.109 29.6369 108.108 29.229V24.5997C108.108 23.1448 107.459 22.3972 106.304 22.3972C105.147 22.3972 104.438 23.1448 104.438 24.5997V29.229C104.438 30.0769 103.748 30.7642 102.897 30.7642C102.695 30.7649 102.494 30.7256 102.308 30.6488C102.121 30.5719 101.951 30.459 101.807 30.3164C101.664 30.1738 101.55 30.0044 101.473 29.8178C101.395 29.6312 101.355 29.4311 101.355 29.229V21.2245ZM119.608 21.2245C119.608 20.3754 120.298 19.6893 121.15 19.6893C122.002 19.6893 122.692 20.3754 122.692 21.2245V21.3462C123.4 20.4368 124.333 19.6078 125.896 19.6078C127.315 19.6078 128.39 20.2337 128.958 21.3261C129.911 20.2148 131.047 19.6078 132.527 19.6078C134.819 19.6078 136.198 20.9824 136.198 23.59V29.2278C136.198 30.0769 135.509 30.7642 134.656 30.7642C134.248 30.7649 133.857 30.6035 133.568 30.3156C133.279 30.0278 133.116 29.6369 133.115 29.229V24.5997C133.115 23.1448 132.465 22.3972 131.31 22.3972C130.153 22.3972 129.445 23.1448 129.445 24.5997V29.229C129.445 30.0769 128.755 30.7642 127.903 30.7642C127.701 30.7647 127.501 30.7254 127.314 30.6484C127.128 30.5715 126.958 30.4586 126.815 30.316C126.672 30.1734 126.558 30.004 126.48 29.8175C126.403 29.631 126.363 29.431 126.362 29.229V24.5997C126.362 23.1448 125.713 22.3972 124.557 22.3972C123.4 22.3972 122.691 23.1448 122.691 24.5997V29.229C122.691 30.0769 122.002 30.7642 121.15 30.7642C120.948 30.7647 120.747 30.7254 120.561 30.6484C120.374 30.5715 120.204 30.4586 120.061 30.316C119.918 30.1734 119.804 30.004 119.726 29.8175C119.649 29.631 119.609 29.431 119.608 29.229V21.2245ZM137.213 27.5308V27.4906C137.213 25.1252 139.019 24.034 141.594 24.034C142.499 24.0258 143.397 24.1761 144.25 24.478V24.2962C144.25 23.0243 143.459 22.3157 141.918 22.3157C141.066 22.3157 140.377 22.4374 139.788 22.6192C139.646 22.6721 139.495 22.6996 139.343 22.7007C139.176 22.7042 139.011 22.6743 138.856 22.6128C138.7 22.5513 138.559 22.4595 138.44 22.3426C138.321 22.2258 138.226 22.0864 138.162 21.9325C138.097 21.7786 138.064 21.6134 138.064 21.4466C138.064 20.901 138.41 20.4368 138.896 20.2538C139.87 19.8901 140.925 19.6893 142.364 19.6893C144.048 19.6893 145.265 20.1333 146.035 20.901C146.846 21.7087 147.211 22.9027 147.211 24.3576V29.2881C147.211 29.4839 147.172 29.6778 147.096 29.8585C147.021 30.0391 146.91 30.2029 146.77 30.3403C146.63 30.4777 146.465 30.5859 146.283 30.6587C146.101 30.7315 145.907 30.7674 145.711 30.7642C144.818 30.7642 144.23 30.1383 144.23 29.4912V29.4699C143.48 30.2989 142.444 30.8445 140.945 30.8445C138.896 30.8445 137.213 29.673 137.213 27.5308ZM144.291 26.8222V26.2778C143.672 26.0055 143.001 25.8674 142.324 25.8727C141.005 25.8727 140.195 26.3983 140.195 27.369V27.4092C140.195 28.2382 140.883 28.7236 141.878 28.7236C143.317 28.7236 144.291 27.9347 144.291 26.8222ZM148.855 21.2245C148.855 20.3754 149.544 19.6893 150.396 19.6893C151.248 19.6893 151.937 20.3754 151.937 21.2245V21.7087C152.383 20.6589 153.113 19.6893 154.027 19.6893C154.979 19.6893 155.527 20.3152 155.527 21.1844C155.527 21.9922 154.999 22.4775 154.371 22.6192C152.81 22.9841 151.937 24.1757 151.937 26.3581V29.2278C151.937 30.0769 151.248 30.7642 150.396 30.7642C149.988 30.7649 149.596 30.6035 149.307 30.3156C149.018 30.0278 148.856 29.6369 148.855 29.229V21.2245ZM156.46 17.3038C156.46 16.4535 157.15 15.7686 158.001 15.7686C158.854 15.7686 159.543 16.4535 159.543 17.3038V29.2278C159.543 30.0769 158.854 30.7642 158.001 30.7642C157.593 30.7649 157.202 30.6035 156.913 30.3156C156.624 30.0278 156.461 29.6369 156.46 29.229V17.3026V17.3038ZM161.997 33.654C161.551 33.4934 161.023 33.1285 161.023 32.3821C161.02 32.2196 161.049 32.0579 161.108 31.9066C161.168 31.7553 161.257 31.6173 161.37 31.5006C161.483 31.3839 161.618 31.2909 161.768 31.227C161.917 31.163 162.078 31.1293 162.241 31.128C162.484 31.128 162.626 31.1681 162.747 31.2095C163.011 31.2898 163.174 31.3311 163.397 31.3311C163.944 31.3311 164.208 31.2295 164.492 30.6839L164.593 30.4407L160.883 21.8717C160.79 21.646 160.735 21.4067 160.72 21.1631C160.72 20.2951 161.389 19.6893 162.241 19.6893C163.011 19.6893 163.457 20.1133 163.72 20.8407L166.074 27.147L168.345 20.8608C168.588 20.2148 169.033 19.6893 169.826 19.6893C170.616 19.6893 171.284 20.2951 171.284 21.1041C171.284 21.3462 171.204 21.6898 171.144 21.8315L167.351 30.906C166.438 33.1084 165.526 33.9374 163.68 33.9374C162.991 33.9374 162.504 33.8371 161.997 33.654Z" fill="#ffffff"/>
<path fill-rule="evenodd" clip-rule="evenodd" d="M61.7124 25.214C61.7124 34.4844 54.1709 42 44.8685 42C35.5662 42 28.0247 34.4844 28.0247 25.214C28.0247 15.9435 35.5662 8.42798 44.8685 8.42798C54.1709 8.42798 61.7124 15.9435 61.7124 25.214Z" fill="#ffffff"/>
<path fill-rule="evenodd" clip-rule="evenodd" d="M47.0696 28.8384C47.1688 29.3875 47.6872 29.7642 48.2482 29.7642H50.0125L51.0352 29.6225C49.3984 32.0151 46.557 33.1158 43.45 32.6304C40.9204 32.2348 38.7474 30.5283 37.8298 28.1463C35.749 22.7388 39.7111 17.5768 44.8754 17.5768C47.5668 17.5768 49.9263 19.1463 51.2797 21.0417C51.6387 21.5578 52.352 21.7468 52.8704 21.3889C53.1059 21.2294 53.272 20.9864 53.3352 20.7091C53.3983 20.4317 53.3538 20.1408 53.2105 19.895C52.2513 18.4013 50.9079 17.1932 49.321 16.3973C47.7342 15.6015 45.9624 15.2474 44.1916 15.372C39.2671 15.7015 35.2814 19.7179 34.9979 24.6283C34.6696 30.3441 39.2175 35.0088 44.8754 35.0088C46.2861 35.0146 47.6815 34.716 48.9663 34.1333C50.2511 33.5507 51.395 32.6976 52.3201 31.6325L52.1051 32.83V33.9117C52.1051 34.4691 52.483 34.9864 53.0345 35.0856C53.1992 35.1166 53.3687 35.111 53.5309 35.0692C53.6932 35.0274 53.8442 34.9504 53.9734 34.8436C54.1025 34.7369 54.2066 34.6031 54.2783 34.4516C54.3499 34.3001 54.3873 34.1348 54.3879 33.9672V27.4885H48.1915C48.0239 27.4883 47.8582 27.525 47.7064 27.5961C47.5546 27.6671 47.4204 27.7708 47.3132 27.8997C47.2061 28.0286 47.1287 28.1796 47.0866 28.3418C47.0445 28.5041 47.0387 28.6736 47.0696 28.8384Z" fill="black"/>
</svg>
