<svg width="200" height="50" viewBox="0 0 200 50" fill="none" xmlns="http://www.w3.org/2000/svg">
<path d="M175.65 23.985C176.548 24.9378 177 26.2297 177 27.8664V36.4769H173.668V28.8426C173.668 27.8781 173.396 27.1182 172.851 26.5629C172.306 26.0075 171.57 25.7269 170.637 25.7269C169.536 25.7445 168.661 26.1244 168.018 26.861C167.375 27.5975 167.05 28.5445 167.05 29.6961V36.4769H163.742V17.3444H167.05V25.3119C167.983 23.5056 169.623 22.5879 171.964 22.5528C173.517 22.5528 174.752 23.0263 175.65 23.985ZM156.382 25.5165C155.281 25.5165 154.383 25.8965 153.699 26.6505C153.015 27.4105 152.668 28.3867 152.668 29.5909C152.668 30.8301 153.015 31.8239 153.699 32.5838C154.389 33.3379 155.281 33.7178 156.388 33.7178C158.016 33.7178 159.239 33.1742 160.056 32.0928L162.119 33.823C161.511 34.7174 160.676 35.4306 159.703 35.8865C158.7 36.3658 157.541 36.6055 156.214 36.6055C154.875 36.6055 153.682 36.3132 152.639 35.7287C151.613 35.1617 150.767 34.3024 150.211 33.2677C149.631 32.2097 149.341 30.9938 149.341 29.6201C149.341 28.2288 149.637 26.9954 150.222 25.9315C150.784 24.8852 151.636 24.0317 152.668 23.4589C153.711 22.8743 154.91 22.582 156.272 22.582C157.512 22.582 158.619 22.7983 159.592 23.2367C160.566 23.6752 161.36 24.3006 161.974 25.1073L159.963 27.0422C159.03 26.0251 157.842 25.5165 156.382 25.5165ZM147.226 22.6814V36.4769H143.918V34.2848C143.448 35.0214 142.793 35.6235 142.023 36.0268C141.252 36.4301 140.365 36.6347 139.363 36.6347C138.071 36.6347 136.941 36.3366 135.961 35.7462C134.988 35.1558 134.223 34.3199 133.684 33.2443C133.145 32.1687 132.873 30.9353 132.873 29.5441C132.873 28.1704 133.145 26.9545 133.69 25.8965C134.229 24.8384 134.994 24.02 135.967 23.4355C136.941 22.8509 138.065 22.5587 139.34 22.5587C140.342 22.5587 141.235 22.7633 142.011 23.1666C142.788 23.5699 143.448 24.1662 143.918 24.9086V22.6931L147.226 22.6814ZM142.718 32.8001C143.413 32.122 143.813 31.2218 143.918 30.1053V29.1291C143.813 28.0067 143.419 27.1123 142.724 26.4343C142.028 25.7562 141.148 25.4171 140.076 25.4171C138.94 25.4171 138.013 25.8088 137.3 26.5921C136.587 27.3754 136.222 28.3867 136.205 29.6201C136.222 30.8593 136.587 31.8648 137.3 32.6481C138.013 33.4314 138.94 33.823 140.076 33.823C141.142 33.823 142.023 33.484 142.718 32.8001ZM129.541 24.4585C130.636 25.7153 131.181 27.4748 131.181 29.7428C131.181 30.1871 131.169 30.5261 131.157 30.7483H121.103C121.324 31.7303 121.776 32.4961 122.465 33.0573C123.149 33.6184 123.995 33.8932 124.997 33.8932C125.681 33.8932 126.365 33.7587 126.997 33.4898C127.628 33.2326 128.196 32.841 128.666 32.3441L130.445 34.2264C129.755 34.9921 128.909 35.5884 127.959 35.98C126.985 36.3951 125.901 36.5997 124.714 36.5997C123.323 36.5997 122.094 36.3074 121.034 35.7228C119.997 35.1617 119.139 34.3024 118.577 33.2619C117.997 32.2038 117.713 30.9879 117.713 29.6142C117.713 28.2405 118.003 27.0188 118.594 25.9549C119.162 24.9086 120.014 24.0434 121.051 23.4647C122.106 22.8685 123.3 22.5762 124.638 22.5762C126.811 22.5762 128.445 23.2075 129.541 24.4585ZM128.156 28.5094C128.121 27.4923 127.791 26.6856 127.165 26.0835C126.539 25.4814 125.704 25.1775 124.667 25.1775C123.699 25.1775 122.888 25.4756 122.233 26.066C121.579 26.6564 121.179 27.4689 121.022 28.5036H128.156V28.5094ZM114.115 23.2894C114.903 22.8159 115.824 22.5704 116.879 22.5528V25.8029C115.471 25.7153 114.347 26.0485 113.506 26.7967C112.666 27.5449 112.243 28.5562 112.243 29.8247V36.4769H108.934V22.6814H112.243V25.3353C112.707 24.4409 113.327 23.757 114.115 23.2894ZM106.454 35.6235C105.371 36.2957 104.229 36.6289 103.041 36.6289C101.87 36.6289 100.909 36.2782 100.167 35.5825C99.4193 34.8869 99.0484 33.8581 99.0484 32.5019V19.4547L102.334 19.0572V23.2426H106.228V25.6919H102.334V31.9115C102.334 32.5487 102.45 32.9988 102.688 33.2619C102.925 33.5308 103.279 33.6594 103.754 33.6594C104.264 33.6594 104.907 33.4723 105.689 33.0923L106.454 35.6235ZM92.9175 22.6814H96.2032V30.4151C96.2032 34.9278 93.0914 36.6055 89.9332 36.6055C86.775 36.6055 83.669 34.9278 83.669 30.4151V22.6814H86.9547V30.532C86.9547 32.2623 88.2295 33.6652 89.939 33.6652C91.6485 33.6652 92.9233 32.2623 92.9233 30.532L92.9175 22.6814ZM76.8601 19.4079C78.2799 20.1854 79.462 21.3369 80.2849 22.734C81.1193 24.1428 81.5307 25.7094 81.5307 27.428C81.5307 29.1466 81.1135 30.7132 80.2849 32.1337C79.462 33.5424 78.2799 34.7057 76.8601 35.5007C75.4056 36.3249 73.8005 36.74 72.0331 36.74C70.2657 36.74 68.6605 36.3249 67.2118 35.5007C65.7921 34.7057 64.6099 33.5424 63.7871 32.1337C62.9584 30.7132 62.5412 29.1466 62.5412 27.428C62.5412 25.7094 62.9584 24.1428 63.7871 22.734C64.6099 21.3311 65.7921 20.1854 67.2118 19.4079C68.6605 18.6012 70.2714 18.1979 72.0331 18.1979C73.8005 18.192 75.4114 18.5954 76.8601 19.4079ZM69.0603 22.1027C68.139 22.6288 67.3741 23.3946 66.8467 24.3182C66.302 25.2593 66.0297 26.294 66.0297 27.428C66.0297 28.562 66.3078 29.6025 66.8583 30.5495C67.3914 31.479 68.1563 32.2506 69.0719 32.7942C69.9991 33.3437 71.0016 33.6184 72.091 33.6184C73.1399 33.6243 74.1713 33.3379 75.0695 32.7942C75.9793 32.2506 76.7268 31.479 77.2484 30.5495C77.7873 29.5967 78.0597 28.5211 78.0481 27.428C78.0481 26.294 77.7815 25.2593 77.2484 24.3182C76.7326 23.4004 75.9793 22.6347 75.0695 22.1027C74.1655 21.5649 73.1399 21.2843 72.091 21.2902C71.0248 21.2843 69.9817 21.5649 69.0603 22.1027ZM37.6062 10.4584C42.2942 10.4584 49.3754 11.9139 52.6669 15.2517C53.5013 16.0993 54.5965 17.7536 54.5965 20.1854C54.5965 24.4994 51.1602 31.1224 47.3704 34.9688C45.4118 36.9562 42.2942 39.5517 38.0987 39.5517C33.996 39.5517 30.8668 36.7341 29.9628 35.8105C26.486 32.2915 24 26.9487 24 21.9741C24 18.8292 24.8866 16.0818 27.1408 13.7962C29.2269 11.6859 32.8255 10.4584 37.6062 10.4584ZM43.4068 27.6735C44.9888 26.0718 45.4176 24.096 45.4176 23.0088C45.4176 22.2196 45.2147 21.068 44.2412 20.0801C42.752 18.5662 41.0946 18.1394 39.2983 18.1394C37.0209 18.1394 35.4911 18.8701 34.4712 19.8989C33.6715 20.7173 32.9819 21.9566 32.9819 23.7278C32.9819 25.4931 33.9149 27.2 34.9232 28.2288C35.8619 29.1758 37.3338 29.8773 38.8115 29.8773C40.295 29.8773 41.8248 29.2752 43.4068 27.6735Z" fill="#ffffff"/>
</svg>
