<svg width="200" height="50" viewBox="0 0 200 50" fill="none" xmlns="http://www.w3.org/2000/svg">
<path fill-rule="evenodd" clip-rule="evenodd" d="M54 9C45.16 9 38 16.16 38 25C38 32.08 42.58 38.06 48.94 40.18C49.74 40.32 50.04 39.84 50.04 39.42C50.04 39.04 50.02 37.78 50.02 36.44C46 37.18 44.96 35.46 44.64 34.56C44.46 34.1 43.68 32.68 43 32.3C42.44 32 41.64 31.26 42.98 31.24C44.24 31.22 45.14 32.4 45.44 32.88C46.88 35.3 49.18 34.62 50.1 34.2C50.24 33.16 50.66 32.46 51.12 32.06C47.56 31.66 43.84 30.28 43.84 24.16C43.84 22.42 44.46 20.98 45.48 19.86C45.32 19.46 44.76 17.82 45.64 15.62C45.64 15.62 46.98 15.2 50.04 17.26C51.32 16.9 52.68 16.72 54.04 16.72C55.4 16.72 56.76 16.9 58.04 17.26C61.1 15.18 62.44 15.62 62.44 15.62C63.32 17.82 62.76 19.46 62.6 19.86C63.62 20.98 64.24 22.4 64.24 24.16C64.24 30.3 60.5 31.66 56.94 32.06C57.52 32.56 58.02 33.52 58.02 35.02C58.02 37.16 58 38.88 58 39.42C58 39.84 58.3 40.34 59.1 40.18C62.2763 39.1077 65.0363 37.0664 66.9917 34.3432C68.947 31.6201 69.9991 28.3524 70 25C70 16.16 62.84 9 54 9Z" fill="#ffffff"/>
<path d="M112.589 32.7228H112.552C112.569 32.7228 112.58 32.7415 112.597 32.7433H112.608L112.589 32.7247V32.7228ZM112.597 32.7433C112.423 32.7452 111.986 32.8367 111.525 32.8367C110.069 32.8367 109.565 32.1647 109.565 31.2873V25.4428H112.533C112.701 25.4428 112.832 25.2935 112.832 25.0881V21.9148C112.832 21.7468 112.683 21.5975 112.533 21.5975H109.565V17.6588C109.565 17.5095 109.472 17.4161 109.304 17.4161H105.272C105.104 17.4161 105.011 17.5095 105.011 17.6588V21.7095C105.011 21.7095 102.976 22.2135 102.845 22.2321C102.696 22.2695 102.603 22.4001 102.603 22.5495V25.0881C102.603 25.2935 102.752 25.4428 102.92 25.4428H104.992V31.5655C104.992 36.1201 108.165 36.5868 110.331 36.5868C111.32 36.5868 112.515 36.2695 112.701 36.1761C112.813 36.1388 112.869 36.0081 112.869 35.8775V33.0775C112.872 32.998 112.846 32.9204 112.796 32.8587C112.746 32.7969 112.675 32.7553 112.597 32.7415V32.7433ZM156.829 28.6348C156.829 25.2561 155.467 24.8081 154.029 24.9575C152.909 25.0321 152.013 25.5921 152.013 25.5921V32.1628C152.013 32.1628 152.928 32.7975 154.291 32.8348C156.213 32.8908 156.829 32.2001 156.829 28.6348ZM161.365 28.3361C161.365 34.7388 159.293 36.5681 155.672 36.5681C152.611 36.5681 150.968 35.0188 150.968 35.0188C150.968 35.0188 150.893 35.8775 150.8 35.9895C150.744 36.1015 150.651 36.1388 150.539 36.1388H147.776C147.589 36.1388 147.421 35.9895 147.421 35.8215L147.459 15.0828C147.459 14.9148 147.608 14.7655 147.776 14.7655H151.752C151.92 14.7655 152.069 14.9148 152.069 15.0828V22.1201C152.069 22.1201 153.6 21.1308 155.84 21.1308L155.821 21.0935C158.061 21.0935 161.365 21.9335 161.365 28.3361ZM145.088 21.5975H141.168C140.963 21.5975 140.851 21.7468 140.851 21.9521V32.1068C140.851 32.1068 139.824 32.8348 138.424 32.8348C137.024 32.8348 136.613 32.2001 136.613 30.8001V21.9335C136.613 21.7655 136.464 21.6161 136.296 21.6161H132.301C132.133 21.6161 131.984 21.7655 131.984 21.9335V31.4721C131.984 35.5788 134.28 36.6055 137.435 36.6055C140.029 36.6055 142.139 35.1681 142.139 35.1681C142.139 35.1681 142.232 35.8961 142.288 36.0081C142.325 36.1015 142.456 36.1761 142.587 36.1761H145.088C145.293 36.1761 145.405 36.0268 145.405 35.8588L145.443 21.9148C145.443 21.7468 145.293 21.5975 145.088 21.5975ZM100.848 21.5788H96.872C96.704 21.5788 96.5547 21.7468 96.5547 21.9521V35.6535C96.5547 36.0268 96.7973 36.1575 97.1147 36.1575H100.699C101.072 36.1575 101.165 35.9895 101.165 35.6535V21.8961C101.165 21.7281 101.016 21.5788 100.848 21.5788ZM98.888 15.2695C97.4507 15.2695 96.312 16.4081 96.312 17.8455C96.312 19.2828 97.4507 20.4215 98.888 20.4215C100.288 20.4215 101.427 19.2828 101.427 17.8455C101.427 16.4081 100.288 15.2695 98.888 15.2695ZM129.669 14.8028H125.731C125.563 14.8028 125.413 14.9521 125.413 15.1201V22.7548H119.235V15.1201C119.235 14.9521 119.085 14.8028 118.917 14.8028H114.941C114.773 14.8028 114.624 14.9521 114.624 15.1201V35.8588C114.624 36.0268 114.792 36.1761 114.941 36.1761H118.917C119.085 36.1761 119.235 36.0268 119.235 35.8588V26.9921H125.413L125.376 35.8588C125.376 36.0268 125.525 36.1761 125.693 36.1761H129.669C129.837 36.1761 129.987 36.0268 129.987 35.8588V15.1201C129.987 14.9521 129.837 14.8028 129.669 14.8028ZM94.4453 23.9868V34.7015C94.4453 34.7761 94.4267 34.9068 94.3333 34.9441C94.3333 34.9441 92 36.6055 88.1547 36.6055C83.5067 36.6055 78 35.1495 78 25.5548C78 15.9601 82.816 13.9815 87.52 14.0001C91.5893 14.0001 93.232 14.9148 93.4933 15.0828C93.568 15.1761 93.6053 15.2508 93.6053 15.3441L92.8213 18.6668C92.8213 18.8348 92.6533 19.0401 92.448 18.9841C91.776 18.7788 90.768 18.3681 88.3973 18.3681C85.6533 18.3681 82.704 19.1521 82.704 25.3308C82.704 31.5095 85.504 32.2375 87.52 32.2375C89.2373 32.2375 89.8533 32.0321 89.8533 32.0321V27.7388H87.1093C86.904 27.7388 86.7547 27.5895 86.7547 27.4215V23.9868C86.7547 23.8188 86.904 23.6695 87.1093 23.6695H94.0907C94.296 23.6695 94.4453 23.8188 94.4453 23.9868Z" fill="#ffffff"/>
</svg>
