<svg width="200" height="50" viewBox="0 0 200 50" fill="none" xmlns="http://www.w3.org/2000/svg">
<path d="M168.548 20.185C168.548 19.6444 168.169 19.284 167.544 19.284L166.316 19.3066L166.338 22.0544H167.008V21.1084H167.41L167.99 22.0544H168.772L168.079 20.9958C168.223 20.9157 168.342 20.798 168.424 20.6553C168.507 20.5127 168.55 20.3502 168.548 20.185ZM167.41 20.5454H166.985V19.8471H167.477C167.565 19.8373 167.654 19.8623 167.725 19.9168C167.795 19.9714 167.842 20.0513 167.856 20.1399V20.1625C167.854 20.2181 167.841 20.2728 167.817 20.323C167.793 20.3732 167.759 20.4178 167.717 20.4538C167.675 20.4899 167.626 20.5167 167.573 20.5325C167.52 20.5482 167.464 20.5526 167.41 20.5454ZM68.3638 32.8882C67.2251 32.8882 66.4436 31.9873 66.4436 30.6584V24.5996H71.1324V20.3201H66.4548L66.4101 15.41H61.2301L61.2747 31.762C61.2747 35.073 63.4629 37.3253 66.6781 37.3253C68.375 37.3253 69.9826 37.0776 71.2552 36.4919V32.3251C70.3515 32.7482 69.3587 32.9415 68.3638 32.8882ZM80.7334 20.0498C75.9106 20.0498 72.2042 23.8338 72.2042 28.8565C72.2042 33.8342 75.9106 37.3028 81.0236 37.3028C83.9039 37.3028 86.6056 36.2667 88.2578 34.127L84.2835 32.3026C83.4797 33.0459 82.2517 33.3387 81.1576 33.3387C79.3714 33.3387 77.5852 32.4152 77.3396 30.5232H89.1956C89.3738 29.8472 89.4638 29.1506 89.4635 28.4511C89.4635 23.2932 85.7348 20.0498 80.7445 20.0498H80.7334ZM77.3396 27.2123C77.4958 24.9599 79.1034 23.9239 80.8673 23.9239C82.8545 23.9239 84.3505 25.05 84.3505 26.9871V27.2123H77.3396ZM56.3068 32.8882C55.1681 32.8882 54.3866 31.9873 54.3866 30.6584V24.5996H59.0755V20.3201H54.3978L54.3531 15.41H49.1731L49.2178 31.762C49.2178 35.073 51.4059 37.3253 54.6211 37.3253C56.318 37.3253 57.9256 37.0776 59.1983 36.4919V32.3251C58.2952 32.7502 57.3019 32.9437 56.3068 32.8882ZM38.1097 20.0498C33.6665 20.0498 29 23.0004 29 28.9466C29 33.9018 32.3045 37.3704 36.4798 37.3704C38.8689 37.3704 40.6774 36.4019 41.8608 34.6901L42.0171 37.0775H47.0296V29.1493C47.0296 23.113 42.6199 20.0498 38.1097 20.0498ZM38.1097 32.7981C35.8546 32.7981 34.2247 31.1088 34.2247 28.7214C34.2247 26.3339 35.8323 24.6446 38.1097 24.6446C40.2085 24.6446 41.9501 26.4915 41.9501 28.7214C41.9501 30.9512 40.2085 32.7981 38.1097 32.7981ZM167.298 18.0452C165.668 18.0678 164.619 19.1264 164.641 20.703C164.663 22.2797 165.735 23.3157 167.365 23.2932C168.95 23.2707 170.022 22.2121 170 20.6129C169.977 19.0138 168.906 18.0227 167.298 18.0452ZM167.365 22.8427C166.092 22.8653 165.222 22.0094 165.222 20.703C165.222 19.3967 166.048 18.5182 167.32 18.4957C168.593 18.4732 169.441 19.3291 169.464 20.658C169.464 21.9418 168.615 22.8202 167.376 22.8427H167.365ZM141.978 20.3426L138.361 30.9287L134.7 20.3426H129.073L135.816 37.055H140.862L147.605 20.3426H141.978ZM155.397 20.0498C150.575 20.0498 146.868 23.8338 146.868 28.8565C146.868 33.8342 150.575 37.3028 155.688 37.3028C158.568 37.3028 161.27 36.2667 162.922 34.127L158.947 32.3026C158.144 33.0459 156.916 33.3387 155.822 33.3387C154.035 33.3387 152.249 32.4152 152.004 30.5232H163.86C164.038 29.8472 164.128 29.1506 164.127 28.4511C164.127 23.2932 160.399 20.0498 155.397 20.0498ZM159.014 27.2123H152.004C152.16 24.9599 153.767 23.9239 155.531 23.9239C157.518 23.9239 159.014 25.05 159.014 26.9871V27.2123ZM125.076 13C123.245 13 121.861 14.2388 121.861 15.9731C121.861 17.7074 123.245 18.9912 125.076 18.9912C126.907 18.9912 128.291 17.7299 128.291 15.9731C128.291 14.2163 126.929 13 125.076 13ZM101.565 20.0273C100.518 20.0103 99.4849 20.2668 98.5654 20.772C97.6459 21.2772 96.8717 22.0139 96.3181 22.9103L96.1395 20.3426H91.1381V37.055H96.3181V28.2934C96.4298 26.1987 98.1043 24.5996 99.9352 24.5996C101.989 24.5996 102.927 26.1537 102.927 28.1132V37.0325H108.085V27.3024C108.085 23.068 105.528 20.0273 101.565 20.0273ZM117.373 32.8882C116.234 32.8882 115.453 31.9873 115.453 30.6584V24.5996H120.142V20.3201H115.453L115.408 15.41H110.228L110.273 31.762C110.273 35.073 112.461 37.3253 115.676 37.3253C117.373 37.3253 118.981 37.0776 120.253 36.4919V32.3251C119.354 32.7484 118.365 32.9418 117.373 32.8882ZM122.464 20.3426V37.055H127.689V20.3426C126.914 20.8604 126.005 21.1366 125.076 21.1366C124.147 21.1366 123.238 20.8604 122.464 20.3426Z" fill="#ffffff"/>
</svg>
