<svg width="200" height="50" viewBox="0 0 200 50" fill="none" xmlns="http://www.w3.org/2000/svg">
<path d="M42.2222 13L35 17.593L42.2222 22.186L49.4457 17.593L56.668 22.186L63.8902 17.593L56.668 13L49.4457 17.593L42.2222 13Z" fill="#ffffff"/>
<path d="M42.2222 31.3717L35 26.7786L42.2222 22.1855L49.4457 26.7786L42.2222 31.3717Z" fill="#ffffff"/>
<path d="M49.4458 26.7786L56.6681 22.1855L63.8903 26.7786L56.6681 31.3717L49.4458 26.7786Z" fill="#ffffff"/>
<path d="M49.4456 37.4965L42.2222 32.9035L49.4456 28.3105L56.6679 32.9035L49.4456 37.4965Z" fill="#ffffff"/>
<path fill-rule="evenodd" clip-rule="evenodd" d="M150.717 31.9102L155.549 25.4097L151.092 19.2676H154.909L157.491 23.0998L160.094 19.2676H163.889L159.366 25.3877L164.132 31.9102H160.381L157.447 27.7855L154.6 31.9102H150.717Z" fill="#ffffff"/>
<path fill-rule="evenodd" clip-rule="evenodd" d="M138.568 25.8413C138.568 30.0139 140.847 32.2321 144.885 32.2321C148.662 32.2321 151.223 30.0139 151.223 25.8413V25.4899C151.223 21.2732 148.618 18.9453 144.885 18.9453C141.238 18.9453 138.568 21.2293 138.568 25.4899V25.8413ZM147.933 25.8422C147.933 28.157 146.779 29.4137 144.885 29.4137C143.012 29.4137 141.858 28.135 141.858 25.8422V25.5336C141.858 23.0644 143.078 21.7637 144.906 21.7637C146.757 21.7637 147.933 23.1526 147.933 25.5336V25.8422Z" fill="#ffffff"/>
<path fill-rule="evenodd" clip-rule="evenodd" d="M127.53 29.5982C128.214 31.2227 129.584 32.2325 131.682 32.2325C134.929 32.2325 137.049 29.8616 137.049 25.6468V25.2736C137.049 21.0588 134.796 18.9734 131.77 18.9514C129.76 18.9514 128.347 19.8514 127.64 21.4979V15H124.394V31.9032H127.265L127.53 29.5982ZM133.759 25.677C133.759 28.183 132.6 29.4141 130.699 29.4141C128.886 29.4141 127.684 28.0511 127.684 25.677V25.4132C127.684 23.237 128.929 21.7642 130.743 21.7642C132.491 21.7642 133.759 23.0392 133.759 25.3693V25.677Z" fill="#ffffff"/>
<path fill-rule="evenodd" clip-rule="evenodd" d="M109.966 19.2823V36.2584H113.207V29.9009C113.891 31.3779 115.236 32.2816 117.264 32.2816C120.263 32.2816 122.622 30.0993 122.622 25.9111V25.5584C122.622 21.2819 120.505 18.9453 117.264 18.9453C115.17 18.9453 113.759 20.0254 113.075 21.6567L112.744 19.2823H109.966ZM119.331 25.8305C119.331 28.1607 118.13 29.4137 116.25 29.4137C114.437 29.4137 113.257 28.0068 113.257 25.7646V25.5227C113.257 23.1706 114.48 21.7637 116.316 21.7637C118.042 21.7637 119.331 23.0167 119.331 25.5447V25.8305Z" fill="#ffffff"/>
<path fill-rule="evenodd" clip-rule="evenodd" d="M95.5391 25.8413C95.5391 30.0139 97.8401 32.2321 101.878 32.2321C105.655 32.2321 108.194 30.0139 108.194 25.8413V25.4899C108.194 21.2732 105.611 18.9453 101.878 18.9453C98.2308 18.9453 95.5391 21.2293 95.5391 25.4899V25.8413ZM104.904 25.8422C104.904 28.157 103.728 29.4137 101.856 29.4137C99.9835 29.4137 98.8295 28.135 98.8295 25.8422V25.5336C98.8295 23.0644 100.049 21.7637 101.878 21.7637C103.728 21.7637 104.904 23.1526 104.904 25.5336V25.8422Z" fill="#ffffff"/>
<path fill-rule="evenodd" clip-rule="evenodd" d="M86.6802 31.9101H89.9997V26.1022C89.9997 23.4183 90.6636 22.4723 93.4077 22.4723H94.7797V19.1064H93.9609C91.5931 19.1064 90.2874 20.1404 89.7784 22.1643L89.3579 19.2668H86.6802V31.9101Z" fill="#ffffff"/>
<path fill-rule="evenodd" clip-rule="evenodd" d="M72 16.2881V31.9101H78.027C81.953 31.9101 84.9086 29.6296 84.9086 24.5864V23.5119C84.9086 18.4906 81.7766 16.2881 77.9388 16.2881H72ZM75.2904 19.1065H77.8013C80.069 19.1065 81.6182 20.5392 81.6182 23.6913V24.5069C81.6182 27.6589 80.1139 29.0917 77.9135 29.0917H75.2904V19.1065Z" fill="#ffffff"/>
</svg>
