<svg width="200" height="50" viewBox="0 0 200 50" fill="none" xmlns="http://www.w3.org/2000/svg">
<path fill-rule="evenodd" clip-rule="evenodd" d="M94.832 29.1106C93.9293 29.3188 93.4623 29.0411 93.4623 28.4432C93.4623 27.6239 94.3094 27.2959 95.5196 27.2959C96.0519 27.2959 96.554 27.3419 96.554 27.3419C96.554 27.6926 95.7919 28.8893 94.832 29.1106ZM95.7506 20.9081C92.8609 20.9081 90.7862 21.9707 90.7862 21.9707V25.0945C90.7862 25.0945 93.0768 23.7777 94.9352 23.7777C96.4177 23.7777 96.6 24.5777 96.5328 25.2413C96.5328 25.2413 96.1048 25.1281 94.8 25.1281C91.7241 25.1281 90.172 26.5261 90.172 28.7672C90.172 30.8933 91.9164 31.7817 93.3866 31.7817C95.5312 31.7817 96.4745 30.3401 96.7638 29.6564C96.965 29.1821 97.0021 28.8623 97.1821 28.8623C97.3888 28.8623 97.3193 29.0917 97.3088 29.5637C97.2918 30.3907 97.3312 31.0157 97.4622 31.5426H100.306V26.4268C100.306 23.2327 99.1761 20.9081 95.7506 20.9081Z" fill="#ffffff"/>
<path fill-rule="evenodd" clip-rule="evenodd" d="M114.47 26.3504C114.47 25.416 115.339 24.565 116.933 24.565C118.67 24.565 120.068 25.4017 120.381 25.5917V21.9754C120.381 21.9754 119.277 20.9124 116.564 20.9124C113.703 20.9124 111.321 22.5861 111.321 26.1889C111.321 29.7913 113.483 31.7891 116.556 31.7891C118.957 31.7891 120.388 30.47 120.388 30.47V27.0356C119.935 27.2886 118.674 28.1643 116.95 28.1643C115.126 28.1643 114.47 27.325 114.47 26.3508L114.47 26.3504ZM76.4566 21.1492C76.457 21.1515 76.6382 21.9287 76.3994 22.945C76.2778 23.4618 76.0541 23.9014 76.3241 23.9014C76.5103 23.9014 76.5107 23.7469 76.7529 23.193C77.1071 22.3834 77.8538 20.9097 79.5986 20.9097C81.2572 20.9097 82.0387 21.9175 82.2975 22.8612C82.4945 23.5781 82.3222 23.9014 82.5624 23.9014C82.7332 23.9014 82.7923 23.5294 83.0024 23.0589C83.3798 22.2161 84.2006 20.9097 85.8608 20.9097C88.3658 20.9097 89.3222 22.7186 89.3222 25.4322V31.5465H85.6009V25.9096C85.6009 24.9698 85.4491 24.0582 84.5923 24.0582C83.7985 24.0582 83.4285 25.465 83.4285 26.3732V31.5489H79.6387V25.91C79.6387 24.7076 79.4692 24.0586 78.624 24.0586C77.8924 24.0586 77.4656 25.353 77.4656 26.3736V31.5469H73.6909V21.1492H76.4562H76.4566ZM101.545 21.1635C101.547 21.1643 102.189 21.5347 103.436 21.5347C104.685 21.5347 105.319 21.1635 105.319 21.1635V31.5492H101.545V21.1635ZM132.705 21.1635C132.707 21.1643 133.349 21.5347 134.597 21.5347C135.845 21.5347 136.48 21.1635 136.48 21.1635V31.5492H132.705V21.1635ZM110.315 18.0015V31.5492H106.541V18.0015H110.315ZM124.867 18.0015C124.868 18.0026 125.024 18.392 125.024 19.55C125.024 21.2601 124.652 22.6518 124.476 23.1822C124.383 23.463 124.217 23.8964 124.455 23.9041C124.593 23.9084 124.675 23.7013 124.844 23.3421C125.011 22.9825 125.842 20.912 128.027 20.912C131.037 20.912 131.479 23.3765 131.479 26.0452V31.5489H127.705V25.8193C127.705 24.6442 127.458 24.0606 126.671 24.0606C125.72 24.0606 125.384 25.533 125.384 26.3759V31.5489H121.609V18.0011H124.868L124.867 18.0015ZM140.521 21.1492C140.521 21.1515 140.702 21.9287 140.464 22.945C140.342 23.4618 140.118 23.9014 140.388 23.9014C140.575 23.9014 140.575 23.7469 140.817 23.193C141.171 22.3834 141.918 20.9097 143.663 20.9097C145.397 20.9097 146.085 21.9221 146.362 22.8612C146.547 23.4904 146.386 23.9014 146.627 23.9014C146.797 23.9014 146.857 23.5294 147.067 23.0589C147.443 22.2161 148.265 20.9097 149.925 20.9097C152.43 20.9097 153.387 22.7186 153.387 25.4322V31.5465H149.665V25.9096C149.665 24.9698 149.513 24.0582 148.657 24.0582C147.863 24.0582 147.492 25.465 147.492 26.3732V31.5489H143.703V25.91C143.703 24.7076 143.534 24.0586 142.688 24.0586C141.957 24.0586 141.53 25.353 141.53 26.3736V31.5469H137.755V21.1492H140.521H140.521ZM103.421 17.8964C102.145 17.8964 101.111 18.5716 101.111 19.4044C101.111 20.2372 102.145 20.9124 103.421 20.9124C104.697 20.9124 105.732 20.2372 105.732 19.4044C105.732 18.5716 104.697 17.8964 103.421 17.8964ZM134.582 17.8964C133.306 17.8964 132.271 18.5716 132.271 19.4044C132.271 20.2372 133.305 20.9124 134.582 20.9124C135.857 20.9124 136.892 20.2372 136.892 19.4044C136.892 18.5716 135.858 17.8964 134.582 17.8964Z" fill="#ffffff"/>
<path fill-rule="evenodd" clip-rule="evenodd" d="M159.816 29.3089C158.951 29.3089 158.314 28.2115 158.314 26.6822C158.314 25.197 158.968 24.0563 159.786 24.0563C160.836 24.0563 161.284 25.0193 161.284 26.6822C161.284 28.4123 160.871 29.3089 159.816 29.3089ZM160.852 20.9062C158.912 20.9062 158.023 22.3606 157.636 23.1891C157.381 23.7365 157.394 23.8976 157.208 23.8976C156.938 23.8976 157.162 23.458 157.283 22.9411C157.523 21.9233 157.341 21.1457 157.341 21.1457H154.577V34.4115H158.35V30.2058C158.796 30.9633 159.623 31.7725 160.898 31.7725C163.627 31.7725 165 29.4638 165 26.3446C165 22.8094 163.357 20.9062 160.852 20.9062" fill="#ffffff"/>
<path fill-rule="evenodd" clip-rule="evenodd" d="M60.3501 24.0449C60.6039 24.0148 60.8469 24.0132 61.0705 24.0449C61.1999 23.7483 61.2219 23.2372 61.1057 22.6806C60.933 21.8532 60.6989 21.3526 60.2153 21.4306C59.7317 21.5086 59.7139 22.1081 59.887 22.9351C59.9843 23.4006 60.1574 23.7985 60.3501 24.0449Z" fill="#ffffff"/>
<path fill-rule="evenodd" clip-rule="evenodd" d="M56.1995 24.6997C56.5452 24.8515 56.7581 24.9523 56.8411 24.8642C56.8948 24.8094 56.8786 24.7047 56.7959 24.5699C56.6252 24.2914 56.2741 24.0086 55.9013 23.8499C55.1396 23.5219 54.2307 23.6308 53.5296 24.1345C53.2982 24.3041 53.0788 24.539 53.1101 24.6815C53.1201 24.7275 53.1549 24.7622 53.236 24.7738C53.4269 24.7955 54.0936 24.4586 54.8619 24.4115C55.4038 24.3783 55.853 24.5479 56.1991 24.6997" fill="#ffffff"/>
<path fill-rule="evenodd" clip-rule="evenodd" d="M55.504 25.0969C55.0532 25.168 54.8048 25.3167 54.6453 25.4546C54.5093 25.5736 54.4251 25.7053 54.4259 25.7976C54.4263 25.8416 54.4452 25.8671 54.4603 25.8799C54.4807 25.898 54.5051 25.9081 54.5344 25.9081C54.636 25.9081 54.8643 25.8165 54.8643 25.8165C55.4912 25.5921 55.9049 25.6195 56.3148 25.6659C56.5411 25.6914 56.6485 25.7053 56.6979 25.6276C56.7126 25.6052 56.7304 25.5569 56.6852 25.4836C56.5797 25.3124 56.1247 25.0231 55.5044 25.0969" fill="#ffffff"/>
<path fill-rule="evenodd" clip-rule="evenodd" d="M58.9487 26.5541C59.2547 26.7044 59.5915 26.6453 59.7012 26.4224C59.8109 26.1996 59.6518 25.8967 59.3458 25.7465C59.0399 25.5962 58.7031 25.6553 58.5934 25.8782C58.4837 26.1014 58.6428 26.4039 58.9487 26.5541Z" fill="#ffffff"/>
<path fill-rule="evenodd" clip-rule="evenodd" d="M60.9152 24.8358C60.6668 24.8315 60.4605 25.1042 60.4547 25.4453C60.449 25.7864 60.646 26.0657 60.8943 26.0699C61.1427 26.0742 61.349 25.8015 61.3548 25.4604C61.3606 25.1197 61.1636 24.84 60.9152 24.8358Z" fill="#ffffff"/>
<path fill-rule="evenodd" clip-rule="evenodd" d="M44.2232 30.9812C44.1614 30.9035 44.0598 30.9271 43.9613 30.9503C43.8925 30.9665 43.8149 30.9843 43.7295 30.9831C43.5468 30.9796 43.3919 30.9016 43.305 30.768C43.1918 30.5941 43.1984 30.3349 43.3232 30.0383L43.3815 29.9054C43.5808 29.4581 43.9142 28.7099 43.5399 27.9968C43.2579 27.4599 42.7982 27.1258 42.2455 27.0555C41.7147 26.9883 41.1685 27.1849 40.8201 27.5692C40.2705 28.1757 40.1843 29.0011 40.2905 29.2928C40.3296 29.3994 40.3906 29.4291 40.4346 29.4353C40.5281 29.4477 40.6664 29.3797 40.7529 29.1468L40.7776 29.0711C40.8163 28.9478 40.8881 28.7184 41.0059 28.5345C41.1481 28.3128 41.369 28.1602 41.6286 28.1042C41.8928 28.0474 42.1632 28.098 42.3896 28.2464C42.7747 28.4982 42.923 28.9702 42.7584 29.4203C42.6735 29.6532 42.5352 30.0985 42.5657 30.4644C42.6275 31.2048 43.0829 31.5023 43.492 31.5339C43.8898 31.549 44.168 31.3254 44.2383 31.1623C44.2796 31.0658 44.2448 31.0071 44.222 30.982" fill="#ffffff"/>
<path fill-rule="evenodd" clip-rule="evenodd" d="M48.0055 17.3803C49.3034 15.8808 50.9007 14.5771 52.3318 13.8451C52.3812 13.8196 52.4338 13.8733 52.4071 13.922C52.2936 14.1279 52.0745 14.5686 52.0054 14.9027C51.9946 14.9549 52.0514 14.9939 52.0954 14.9642C52.9858 14.3573 54.5343 13.7068 55.8929 13.6234C55.9512 13.6199 55.9794 13.6945 55.933 13.7304C55.7264 13.8888 55.5004 14.1082 55.3355 14.3299C55.3073 14.3678 55.3339 14.4218 55.381 14.4222C56.3348 14.4292 57.6794 14.7629 58.5558 15.2546C58.6149 15.2879 58.5728 15.4026 58.5064 15.3875C57.1803 15.0835 55.0098 14.8529 52.7548 15.403C50.7419 15.8939 49.2053 16.6522 48.0847 17.4672C48.0279 17.5085 47.9599 17.4336 48.0059 17.3807L48.0055 17.3803ZM54.4687 31.9088L54.469 31.9096L54.4698 31.9112L54.4687 31.9088ZM59.8201 32.5404C59.8587 32.5242 59.885 32.4805 59.8807 32.4369C59.8753 32.3832 59.8274 32.3442 59.7737 32.3496C59.7737 32.3496 57.0045 32.7594 54.3883 31.8018C54.6734 30.8756 55.4309 31.2101 56.5762 31.3024C58.6404 31.4256 60.4907 31.1239 61.8581 30.7315C63.0428 30.3916 64.5991 29.721 65.8077 28.7669C66.2152 29.6623 66.3593 30.648 66.3593 30.648C66.3593 30.648 66.6749 30.5916 66.9387 30.7539C67.1879 30.9072 67.3706 31.2259 67.2458 32.0502C66.9917 33.5899 66.3373 34.8399 65.2372 35.9898C64.5674 36.7106 63.7547 37.3371 62.8245 37.7929C62.3305 38.0525 61.8048 38.2769 61.2489 38.4581C57.1019 39.8128 52.8567 38.3237 51.4886 35.1261C51.3792 34.8858 51.2869 34.634 51.2143 34.3709C50.6314 32.2638 51.1262 29.7357 52.6736 28.1442V28.1434C52.7691 28.0422 52.8664 27.9229 52.8664 27.7726C52.8664 27.6471 52.7864 27.5146 52.7173 27.4203C52.1757 26.635 50.3004 25.297 50.677 22.7074C50.9474 20.8471 52.5744 19.5369 54.0913 19.6145L54.4756 19.6365C55.1331 19.6755 55.7063 19.7598 56.2475 19.7825C57.1533 19.8219 57.9675 19.6902 58.9324 18.8864C59.2577 18.6152 59.5188 18.38 59.9603 18.3054C60.0067 18.2973 60.1222 18.256 60.3528 18.2668C60.5884 18.2796 60.8124 18.3441 61.0137 18.4781C61.787 18.9926 61.8967 20.2391 61.9369 21.1507C61.9597 21.671 62.0226 22.9303 62.0443 23.2918C62.0933 24.1185 62.3108 24.2347 62.7504 24.3796C62.9976 24.4611 63.227 24.5217 63.5654 24.6168C64.589 24.9041 65.1959 25.1958 65.5787 25.5705C65.807 25.8046 65.9132 26.0533 65.946 26.2905C66.0665 27.1712 65.2623 28.2589 63.1328 29.2474C60.8051 30.3278 57.981 30.6013 56.03 30.3838L55.3463 30.3066C53.7857 30.0964 52.8954 32.1132 53.8321 33.4953C54.4358 34.386 56.0802 34.9654 57.7253 34.9658C61.4973 34.9662 64.3967 33.3554 65.4752 31.9645L65.5613 31.8416C65.6146 31.7617 65.5706 31.7176 65.5045 31.7628C64.6234 32.3658 60.7097 34.7595 56.5233 34.0391C56.5233 34.0391 56.0145 33.9553 55.5502 33.7749C55.1813 33.6312 54.4088 33.2759 54.3149 32.4836C57.6933 33.5285 59.8205 32.5408 59.8205 32.5408L59.8201 32.5404ZM41.2639 24.5117C40.0888 24.74 39.0532 25.4059 38.4201 26.326C38.0416 26.0104 37.3366 25.3994 37.2119 25.161C36.201 23.2412 38.3151 19.5091 39.7922 17.4012C43.4425 12.1923 49.1593 8.24956 51.8057 8.96494C52.236 9.08662 53.661 10.7387 53.661 10.7387C53.661 10.7387 51.0154 12.2066 48.5622 14.2526C45.2564 16.7978 42.7595 20.4971 41.2635 24.5117H41.2639ZM43.2381 33.3207C43.0604 33.3512 42.8789 33.3632 42.6958 33.3585C40.9278 33.311 39.0185 31.7196 38.8288 29.8322C38.6191 27.746 39.6852 26.1406 41.5725 25.7597C41.7981 25.7142 42.0708 25.6879 42.3648 25.7034C43.4224 25.7613 44.9806 26.5732 45.3364 28.877C45.6516 30.9173 45.151 32.9943 43.2381 33.3203V33.3207ZM67.1856 29.6263C67.1705 29.5727 67.0716 29.2123 66.936 28.7777C66.8005 28.3428 66.6602 28.0372 66.6602 28.0372C67.2041 27.2233 67.2138 26.4952 67.1412 26.0831C67.0639 25.572 66.8511 25.1367 66.4223 24.6863C65.9935 24.2363 65.1163 23.7751 63.8837 23.429L63.2371 23.2493C63.234 23.2227 63.2031 21.7247 63.1753 21.0816C63.1548 20.6165 63.115 19.8907 62.8898 19.1761C62.6214 18.2085 62.154 17.3618 61.5703 16.8202C63.1811 15.1507 64.1865 13.3113 64.1838 11.7338C64.1792 8.69957 60.4528 7.7814 55.8604 9.68303L54.8874 10.096C54.8831 10.0917 53.1283 8.37008 53.102 8.34691C47.8661 3.77999 31.4958 21.9762 36.7294 26.3955L37.8732 27.3647C37.5765 28.1334 37.4599 29.0141 37.5553 29.9609C37.6773 31.1772 38.3046 32.343 39.3217 33.2438C40.287 34.099 41.5563 34.6406 42.7877 34.6394C44.8246 39.333 49.4784 42.2123 54.9349 42.3745C60.7881 42.5484 65.7015 39.802 67.7603 34.8685C67.8952 34.5224 68.4665 32.9622 68.4665 31.5848C68.4665 30.2007 67.6839 29.6271 67.1856 29.6271" fill="#ffffff"/>
</svg>
