<svg width="200" height="50" viewBox="0 0 200 50" fill="none" xmlns="http://www.w3.org/2000/svg">
<path d="M46.175 37.9025C43.7201 37.9025 40.0028 36.9548 40.0028 31.4503V22.1573H36.952V20.4734L40.0026 20.1579V15.0377L42.3518 14.9334L42.8432 20.0181L48.8754 19.9475V22.1573H42.9843V31.0994C42.9843 34.5706 44.632 35.3775 46.5261 35.3775C47.3322 35.3775 48.419 35.2369 49.3312 34.9919L49.822 37.3062C48.4895 37.7616 47.1214 37.9025 46.175 37.9025Z" fill="#ffffff"/>
<path d="M62.3629 28.5038C57.8391 28.5394 54.6476 29.4517 54.6476 32.1859C54.6476 34.4307 56.1206 35.6581 58.4 35.6581C59.7676 35.6581 61.2055 35.2369 62.3629 34.0443V28.5038ZM63.0638 37.4812C62.9584 37.1311 62.8541 36.6748 62.7486 36.2539C61.1007 37.5166 59.382 37.9026 57.5237 37.9026C54.0868 37.9026 51.6325 35.7272 51.6325 32.2564C51.6325 27.9783 56.1907 26.5409 62.363 26.4354V25.8736C62.363 22.4371 60.82 21.806 58.7859 21.806C57.7694 21.806 56.0865 22.1216 54.8233 22.5429L54.1221 20.3684C55.665 19.7724 57.9094 19.3513 59.417 19.3513C61.9074 19.3513 65.3082 19.9831 65.3082 25.4533V34.1852C65.3082 35.1318 65.4134 36.3935 65.5543 37.3772L63.0638 37.4812Z" fill="#ffffff"/>
<path d="M75.0082 37.9024C73.115 37.9024 70.4493 37.1655 70.4493 32.3971V12.3725L73.3954 11.9172V32.2911C73.3954 34.9559 74.5173 35.3775 75.7094 35.3775C76.1305 35.3775 76.481 35.3418 76.7965 35.2725L77.428 37.5872C76.7617 37.7616 75.9904 37.9024 75.0082 37.9024Z" fill="#ffffff"/>
<path d="M90.811 37.376L84.8147 29.241H82.9559V37.376H80.01V12.3734L82.9559 11.9172V27.9782L90.6004 19.9481H94.0725L86.9183 27.3112L94.3526 37.376H90.811Z" fill="#ffffff"/>
<path d="M108.787 22.6479C107.84 22.2268 106.577 21.9467 105.351 21.9467C102.02 21.9467 99.6687 23.8754 99.6687 28.6091C99.6687 33.3784 102.16 35.0967 104.791 35.0967C106.262 35.0967 107.701 34.4657 108.787 33.5181V22.6479ZM109.453 37.376L109.348 36.2187C108.086 37.2015 106.332 37.9028 104.509 37.9028C100.161 37.9028 96.6535 34.9919 96.6535 28.6093C96.6535 22.2624 100.195 19.316 105.315 19.316C106.508 19.316 107.771 19.5619 108.787 19.948V12.3734L111.769 11.9172V37.3761H109.453V37.376Z" fill="#ffffff"/>
<path d="M126.653 27.6082C126.687 26.1177 126.025 23.6677 123.31 23.6677C120.793 23.6677 119.733 25.9515 119.568 27.6082H126.653ZM119.568 30.4556C119.667 33.3689 121.919 34.6285 124.535 34.6285C126.422 34.6285 127.746 34.3294 129.006 33.8997L129.601 36.6813C128.211 37.2768 126.29 37.7077 123.972 37.7077C118.739 37.7077 115.661 34.496 115.661 29.5614C115.661 25.0915 118.376 20.8862 123.542 20.8862C128.773 20.8862 130.496 25.1906 130.496 28.7341C130.496 29.4954 130.429 30.0915 130.362 30.4558H119.568V30.4556Z" fill="#ffffff"/>
<path d="M138.624 37.9024C136.31 37.9024 134.907 37.4812 133.61 36.9907L133.961 34.6057C135.223 35.2017 136.591 35.5528 138.45 35.5528C140.659 35.5528 142.728 34.8159 142.728 32.6066C142.728 31.9763 142.447 31.4501 141.641 30.8189C140.344 29.8719 138.029 29.2404 136.45 28.1539C135.083 27.2073 134.453 25.8735 134.453 24.331C134.453 21.2455 136.942 19.3511 139.992 19.3511C141.675 19.3511 142.798 19.5964 144.061 20.1233L143.78 22.2978C142.833 21.9109 141.85 21.7009 140.413 21.7009C138.485 21.7009 137.398 22.6829 137.398 24.1913C137.398 25.0326 137.958 25.8389 139.537 26.6456C141.396 27.5576 142.447 27.8371 143.85 28.7496C145.182 29.6616 145.813 30.8541 145.813 32.3623C145.813 36.7448 141.641 37.9024 138.624 37.9024Z" fill="#ffffff"/>
<path d="M160.458 37.376L154.462 29.241H152.603V37.376H149.657V12.3734L152.603 11.9172V27.9782L160.248 19.9481H163.719L156.566 27.3112L164 37.376H160.458Z" fill="#ffffff"/>
<path d="M115.969 21.2233C116.21 19.3012 117.845 17.8131 119.832 17.8131H126.65C128.636 17.8131 130.272 19.3012 130.512 21.2233H131.764C132.226 21.2233 132.673 21.2822 133.103 21.3839V20.6952C133.103 17.4686 130.487 14.852 127.259 14.852H119.224C115.996 14.852 113.38 17.4687 113.38 20.6952V21.3839C113.81 21.2822 114.257 21.2233 114.719 21.2233H115.969Z" fill="#ffffff"/>
</svg>
