<svg width="200" height="50" viewBox="0 0 200 50" fill="none" xmlns="http://www.w3.org/2000/svg">
<g clip-path="url(#clip0_2_960)">
<path d="M17.4 13H29.8C30.4 13 30.9 13.5 30.9 14.1C30.9 14.3 30.8 14.5 30.7 14.7L24.8 24.9L30.7 35C30.8 35.2 30.9 35.4 30.9 35.6C30.9 36.2 30.4 36.7 29.8 36.7H17.4C17.2 36.7 17 36.7 16.9 36.6C16.7 36.5 16.6 36.4 16.5 36.2L10.2 25.4C10 25.1 10 25 10 24.9C10 24.8 10 24.6 10.1 24.5L16.5 13.6C16.6 13.4 16.7 13.3 16.9 13.2C17.1 13 17.2 13 17.4 13ZM23.6 26.9L19.2 34.5H28L23.6 26.9ZM22.4 24.8L17.4 16.1L12.3 24.8L17.4 33.5L22.4 24.8ZM19.2 15.1L23.6 22.7L28 15.1H19.2Z" fill="#ffffff"/>
<path fill-rule="evenodd" clip-rule="evenodd" d="M145 29.7C145 28.7 144.2 27.9 143.2 27.9C142.2 27.9 141.4 28.7 141.4 29.7C141.4 30.7 142.2 31.5 143.2 31.5C144.2 31.5 145 30.7 145 29.7Z" fill="#ffffff"/>
<path fill-rule="evenodd" clip-rule="evenodd" d="M40.8 31C40 30.6 39.3 30.2 38.7 29.6C38.1 29 37.7 28.3 37.4 27.4C37.1 26.7 37 25.7 37 24.8C37 23.9 37.2 23 37.5 22.2C37.8 21.4 38.2 20.7 38.8 20C39.4 19.4 40 19 40.8 18.6C41.5 18.2 42.5 18 43.4 18C44.2 18 45 18.1 45.6 18.4C46.3 18.6 46.8 19 47.3 19.3C47.8 19.7 48.1 20.1 48.5 20.8C48.8 21.4 49 22 49.2 22.7H46C45.9 22.1 45.6 21.7 45.3 21.3C44.9 20.9 44.4 20.7 43.8 20.7C42.8 20.7 42 21.1 41.5 21.7C41 22.4 40.8 23.4 40.8 24.6C40.8 25.8 41.1 26.8 41.5 27.5C42 28.2 42.7 28.6 43.7 28.6C44.4 28.6 44.9 28.4 45.4 28C45.9 27.6 46.1 27.1 46.2 26.4H49.5C49.4 27.1 49.3 27.7 49 28.3C48.7 28.9 48.3 29.4 47.9 29.8C47.4 30.3 46.9 30.5 46.1 30.8C45.4 31.1 44.7 31.2 43.9 31.2C42.5 31.6 41.7 31.4 40.8 31Z" fill="#ffffff"/>
<path fill-rule="evenodd" clip-rule="evenodd" d="M54.5 20.1C55 19.5 55.5 18.9 56 18.6C56.6 18.2 57.3 18.1 58.2 18.1C58.9 18.1 59.4 18.2 60 18.5C60.6 18.8 61 19.1 61.4 19.5C61.7 20 62 20.5 62.2 21.1C62.4 21.7 62.5 22.3 62.5 23V31.2H59.1V23.4C59.1 22.7 58.9 22.2 58.5 21.7C58.1 21.2 57.6 21 56.9 21C56.2 21 55.6 21.3 55 21.8C54.5 22.4 54.3 23 54.3 24V31.2H51V13.5H54.4L54.5 20.1Z" fill="#ffffff"/>
<path fill-rule="evenodd" clip-rule="evenodd" d="M68.1 31C67.3 30.6 66.6 30.2 66 29.6C65.4 29 65 28.3 64.7 27.4C64.4 26.6 64.3 25.7 64.3 24.8C64.3 23.9 64.5 23 64.8 22.2C65.1 21.4 65.5 20.7 66.1 20C66.7 19.4 67.3 19 68.1 18.6C68.8 18.2 69.7 18 70.6 18C71.6 18 72.5 18.2 73.3 18.6C74 19 74.7 19.5 75.3 20.2C75.9 20.9 76.2 21.7 76.5 22.6C76.8 23.5 76.9 24.6 76.9 25.7H67.7C67.8 26.7 68.2 27.5 68.7 28C69.3 28.6 70 28.8 70.9 28.8C71.6 28.8 72.1 28.7 72.5 28.4C72.9 28.1 73.2 27.7 73.3 27.3H76.5C76.5 28 76.4 28.6 76 29C75.7 29.5 75.3 29.9 74.8 30.3C74.3 30.7 73.8 31 73.1 31.2C72.4 31.4 71.7 31.6 70.9 31.6C69.9 31.6 69 31.4 68.1 31ZM68.6 21.5C68.1 22 67.9 22.6 67.7 23.5H73.3C73.2 22.7 73 22 72.5 21.5C72 21 71.3 20.7 70.5 20.7C69.8 20.7 69 21 68.6 21.5Z" fill="#ffffff"/>
<path fill-rule="evenodd" clip-rule="evenodd" d="M81.9 31C81.1 30.6 80.4 30.2 79.8 29.6C79.2 29 78.8 28.3 78.5 27.4C78.2 26.7 78 25.7 78 24.8C78 23.9 78.2 23 78.5 22.2C78.8 21.4 79.2 20.7 79.8 20C80.4 19.4 81 19 81.8 18.6C82.5 18.2 83.5 18 84.4 18C85.2 18 86 18.1 86.6 18.4C87.3 18.6 87.8 19 88.3 19.3C88.8 19.7 89.1 20.1 89.5 20.8C89.8 21.4 90 22 90.2 22.7H86.9C86.8 22.1 86.5 21.7 86.2 21.3C85.9 20.9 85.3 20.7 84.7 20.7C83.7 20.7 82.9 21.1 82.4 21.7C81.9 22.4 81.7 23.4 81.7 24.6C81.7 25.8 82 26.8 82.4 27.5C82.9 28.2 83.6 28.6 84.6 28.6C85.3 28.6 85.8 28.4 86.3 28C86.8 27.6 87 27.1 87.1 26.4H90.4C90.3 27.1 90.2 27.7 89.9 28.3C89.6 28.9 89.2 29.4 88.8 29.8C88.3 30.3 87.8 30.5 87 30.8C86.3 31.1 85.6 31.2 84.8 31.2C83.6 31.6 82.6 31.4 81.9 31Z" fill="#ffffff"/>
<path fill-rule="evenodd" clip-rule="evenodd" d="M95.4 26.9V31.2H92V13.5H95.4V23.2L99.9 18.5H103.9L99.2 23.2L104.5 31.1H100.4L96.9 25.3L95.4 26.9Z" fill="#ffffff"/>
<path fill-rule="evenodd" clip-rule="evenodd" d="M108.2 31C107.4 30.6 106.7 30.2 106.1 29.6C105.5 29 105.1 28.3 104.7 27.4C104.4 26.6 104.2 25.7 104.2 24.8C104.2 23.9 104.4 23 104.7 22.2C105 21.4 105.4 20.7 106.1 20C106.7 19.4 107.4 19 108.2 18.6C109 18.2 109.9 18 110.9 18C111.9 18 112.8 18.2 113.6 18.6C114.4 19 115.1 19.4 115.7 20C116.3 20.6 116.7 21.3 117 22.2C117.3 23 117.5 23.9 117.5 24.8C117.5 25.7 117.3 26.6 117 27.4C116.7 28.2 116.3 28.9 115.7 29.6C115.1 30.2 114.4 30.6 113.6 31C112.8 31.4 111.9 31.6 110.9 31.6C109.9 31.6 109 31.4 108.2 31ZM113.3 27.8C113.9 27.1 114.1 26 114.1 24.8C114.1 23.6 113.8 22.6 113.3 21.8C112.7 21.1 112 20.7 111 20.7C110 20.7 109.1 21.1 108.7 21.8C108.1 22.5 107.9 23.6 107.9 24.8C107.9 26 108.2 27 108.7 27.8C109.3 28.5 110 28.9 111 28.9C111.9 29 112.7 28.6 113.3 27.8Z" fill="#ffffff"/>
<path fill-rule="evenodd" clip-rule="evenodd" d="M127.3 29.7C126.8 30.3 126.3 30.7 125.8 31C125.2 31.3 124.5 31.5 123.6 31.5C122.2 31.5 121.1 31.1 120.3 30.3C119.6 29.5 119.2 28.3 119.2 26.9V18.5H122.6V26.4C122.6 27.1 122.8 27.7 123.1 28.1C123.5 28.5 123.9 28.7 124.7 28.7C125.4 28.7 126.1 28.4 126.6 27.9C127.1 27.3 127.3 26.7 127.3 25.8V18.4H130.7V31H127.4V29.7H127.3Z" fill="#ffffff"/>
<path fill-rule="evenodd" clip-rule="evenodd" d="M133.8 18.6V14.6H137.1V18.5H139.3V20.7H137.1V27.4C137.1 27.9 137.2 28.2 137.5 28.4C137.7 28.6 138.1 28.7 138.4 28.7H139.1C139.2 28.7 139.3 28.7 139.5 28.7V31.1C139.3 31.1 139.1 31.1 138.9 31.1C138.7 31.1 138.5 31.1 138.2 31.1H137.4C137 31.1 136.6 31.1 136.2 31C135.8 30.9 135.5 30.7 135.1 30.5C134.7 30.3 134.5 29.9 134.3 29.6C134.1 29.2 134 28.8 134 28.1V20.7H132.2V18.6H133.8Z" fill="#ffffff"/>
<path fill-rule="evenodd" clip-rule="evenodd" d="M149.9 31C149.2 30.6 148.6 30.2 148.1 29.6C147.6 29 147.3 28.3 147 27.4C146.7 26.6 146.6 25.7 146.6 24.8C146.6 23.9 146.7 22.9 147 22.2C147.3 21.4 147.7 20.7 148.1 20C148.6 19.4 149.2 19 150 18.6C150.7 18.2 151.6 18.1 152.4 18.1C153.8 18.1 154.9 18.5 155.9 19.2C156.8 19.9 157.4 21 157.6 22.3H156.1C155.9 21.4 155.5 20.6 154.9 20.1C154.2 19.6 153.5 19.4 152.5 19.4C151.8 19.4 151.1 19.6 150.6 19.9C150 20.2 149.7 20.6 149.3 21C148.9 21.5 148.7 22 148.6 22.7C148.4 23.4 148.3 24 148.3 24.8C148.3 25.5 148.4 26.2 148.6 26.9C148.8 27.6 149.1 28.1 149.3 28.6C149.7 29.1 150 29.4 150.6 29.7C151.2 30 151.7 30.1 152.5 30.1C153.6 30.1 154.5 29.8 155.1 29.2C155.8 28.5 156.1 27.8 156.3 26.8H157.8C157.6 28.2 157.1 29.4 156.2 30.3C155.3 31.1 154 31.6 152.5 31.6C151.5 31.5 150.7 31.3 149.9 31Z" fill="#ffffff"/>
<path fill-rule="evenodd" clip-rule="evenodd" d="M162.5 31C161.8 30.6 161.2 30.2 160.6 29.6C160.1 29 159.7 28.3 159.4 27.4C159.1 26.6 159 25.7 159 24.8C159 23.9 159.1 22.9 159.4 22.2C159.7 21.4 160.1 20.7 160.6 20C161.1 19.4 161.7 19 162.5 18.6C163.2 18.2 164.1 18.1 164.9 18.1C165.8 18.1 166.7 18.3 167.3 18.6C168 19 168.6 19.4 169.2 20C169.7 20.6 170.1 21.3 170.3 22.2C170.6 23 170.7 23.9 170.7 24.8C170.7 25.7 170.6 26.7 170.3 27.4C170 28.2 169.6 28.9 169.2 29.6C168.7 30.2 168.1 30.6 167.3 31C166.6 31.4 165.7 31.5 164.9 31.5C164 31.5 163.2 31.3 162.5 31ZM166.8 29.8C167.4 29.5 167.8 29.1 168.1 28.7C168.5 28.2 168.8 27.7 168.9 27C169.1 26.3 169.2 25.7 169.2 24.9C169.2 24.2 169.1 23.5 168.9 22.8C168.7 22.1 168.4 21.6 168.1 21.1C167.7 20.6 167.3 20.3 166.8 20C166.2 19.7 165.7 19.6 164.9 19.6C164.2 19.6 163.6 19.7 163 20C162.4 20.3 162 20.7 161.7 21.1C161.3 21.6 161 22.1 160.9 22.8C160.7 23.5 160.6 24.1 160.6 24.9C160.6 25.6 160.7 26.3 160.9 27C161.1 27.7 161.4 28.2 161.7 28.7C162.1 29.2 162.5 29.5 163 29.8C163.6 30.1 164.1 30.2 164.9 30.2C165.6 30.2 166.3 30.1 166.8 29.8Z" fill="#ffffff"/>
<path fill-rule="evenodd" clip-rule="evenodd" d="M174.5 18.4V20.4H174.6C175 19.7 175.5 19.3 176.2 18.8C176.9 18.4 177.6 18.1 178.5 18.1C179.2 18.1 180 18.3 180.6 18.7C181.3 19.1 181.6 19.6 181.9 20.5H182C182.5 19.8 183 19.2 183.7 18.8C184.4 18.4 185.2 18.2 186.1 18.2C186.7 18.2 187.1 18.3 187.6 18.5C188.1 18.7 188.4 19 188.8 19.2C189.2 19.6 189.5 19.9 189.6 20.4C189.8 20.9 189.9 21.4 189.9 22.1V31.2H188.4V22.3C188.4 21.4 188.1 20.6 187.7 20.1C187.2 19.6 186.6 19.4 185.7 19.4C185.2 19.4 184.8 19.5 184.4 19.7C184 19.9 183.7 20.1 183.3 20.4C183 20.7 182.7 21.1 182.6 21.5C182.4 22 182.3 22.4 182.3 23V31.2H180.6V22.4C180.6 21.5 180.3 20.7 179.9 20.2C179.4 19.7 178.8 19.5 178 19.5C177.5 19.5 177.1 19.6 176.7 19.8C176.2 20 175.9 20.3 175.6 20.5C175.2 20.8 175 21.2 174.8 21.6C174.6 22.1 174.5 22.5 174.5 23V31.2H173V18.4H174.5Z" fill="#ffffff"/>
</g>
<defs>
<clipPath id="clip0_2_960">
<rect width="180" height="23.7" fill="white" transform="translate(10 13)"/>
</clipPath>
</defs>
</svg>
