<svg width="200" height="50" viewBox="0 0 200 50" fill="none" xmlns="http://www.w3.org/2000/svg">
<path d="M61.5395 24.725C61.5395 27.6205 63.661 29.5524 66.233 29.5524C67.6287 29.5555 68.9977 29.1625 70.1867 28.4176V31.2298C69.6523 31.5676 68.0465 32.1815 66.254 32.1815C62.0716 32.1743 58.7597 28.941 58.7597 24.725C58.7597 20.5091 62.0716 17.2829 66.254 17.2829C68.0465 17.2829 69.6523 17.8919 70.1867 18.2346V21.0301C68.9967 20.288 67.6281 19.8968 66.233 19.9C63.661 19.9 61.5395 21.8295 61.5395 24.725ZM82.4936 24.8963V31.965H79.9263V25.7314C79.9263 24.4942 79.3895 23.5711 78.0101 23.5711C76.6728 23.5711 75.8909 24.43 75.8909 25.9836V31.965H73.3236V16.6452H75.8909V23.2142C76.0753 22.7384 76.7965 21.2609 78.9577 21.2609C81.1773 21.2609 82.4936 22.6052 82.4936 24.8963ZM96.453 29.7618V31.965H93.1388C93.0849 31.9683 93.0309 31.9601 92.9802 31.9411C92.9296 31.922 92.8834 31.8924 92.8445 31.8541C92.8057 31.8159 92.775 31.7698 92.7546 31.7188C92.7341 31.6679 92.7243 31.6132 92.7257 31.5581V29.6785C92.3756 30.9157 91.4303 32.1743 89.4582 32.1743C86.7811 32.1743 84.8463 30.1401 84.8463 26.7188C84.8463 23.2547 86.9655 21.2609 89.6005 21.2609C92.0302 21.2609 92.525 23.2975 92.525 23.2975V21.4727H95.0923V29.7618H96.453ZM92.602 26.7402C92.602 24.7679 91.6684 23.5283 90.1327 23.5283C88.6506 23.5283 87.5186 24.6418 87.5186 26.7188C87.5186 28.7959 88.4522 29.9093 90.009 29.9093C91.5937 29.9093 92.602 28.8601 92.602 26.7402ZM102.346 21.8914V31.965H99.7789V23.6758H97.9117V21.4727H101.945C101.999 21.4709 102.052 21.4806 102.103 21.5012C102.153 21.5218 102.198 21.5527 102.236 21.5921C102.274 21.6315 102.303 21.6784 102.322 21.7299C102.341 21.7814 102.349 21.8364 102.346 21.8914ZM102.265 19.2885H99.4848V16.6452H102.265V19.2885ZM105.345 21.4727H107.878V23.3403C107.962 23.0667 108.578 21.2609 110.986 21.2609C113.211 21.2609 114.529 22.6052 114.529 24.8916V31.965H111.962V25.7314C111.962 24.4942 111.428 23.5711 110.048 23.5711C108.709 23.5711 107.927 24.43 107.927 25.9836V31.965H105.359L105.345 21.4727ZM128.486 29.7618V31.965H125.172C125.118 31.9683 125.064 31.9601 125.014 31.9411C124.963 31.922 124.917 31.8924 124.878 31.8541C124.839 31.8159 124.808 31.7698 124.788 31.7188C124.768 31.6679 124.758 31.6132 124.759 31.5581V29.6785C124.409 30.9157 123.464 32.1743 121.492 32.1743C118.815 32.1743 116.88 30.1401 116.88 26.7188C116.88 23.2547 118.999 21.2609 121.636 21.2609C124.066 21.2609 124.558 23.2975 124.558 23.2975V21.4727H127.126V29.7618H128.486ZM124.635 26.7402C124.635 24.7679 123.702 23.5283 122.166 23.5283C120.684 23.5283 119.552 24.6418 119.552 26.7188C119.552 28.7959 120.497 29.9093 122.054 29.9093C123.627 29.9093 124.635 28.8601 124.635 26.7402ZM133.738 17.2829V31.965H131.156V18.8484H129.551V16.6452H133.112C133.195 16.6443 133.276 16.6601 133.353 16.6918C133.429 16.7235 133.498 16.7705 133.557 16.8299C133.615 16.8893 133.661 16.9599 133.692 17.0377C133.723 17.1155 133.739 17.1989 133.738 17.2829ZM138.361 36.7924H135.794V34.5892H137.692C138.371 34.5892 138.681 34.3799 138.926 33.7494L139.689 31.777L135.726 21.4727H138.588L140.996 28.8791L143.489 21.4727H146.35L141.286 34.7558C140.751 36.1619 139.864 36.7924 138.361 36.7924ZM147.777 31.294V28.7554C148.127 28.9933 149.546 29.945 151.133 29.945C152.346 29.945 152.881 29.5881 152.881 28.8958C152.881 26.8187 147.632 28.3509 147.632 24.4062C147.632 22.6218 149.114 21.2561 151.833 21.2561C153.334 21.2561 154.4 21.6559 154.818 21.9081V24.4205C154.302 24.0826 153.273 23.4117 151.873 23.4117C150.659 23.4117 150.206 23.79 150.206 24.3777C150.206 26.0764 155.434 24.9011 155.434 28.7649C155.434 30.8634 153.726 32.1838 151.233 32.1838C149.595 32.1743 148.25 31.6081 147.777 31.294ZM161.591 21.8914V31.965H159.024V23.6758H157.157V21.4727H161.192C161.246 21.4709 161.3 21.4806 161.35 21.5012C161.4 21.5218 161.445 21.5528 161.482 21.5922C161.52 21.6316 161.549 21.6786 161.568 21.7301C161.586 21.7816 161.594 21.8365 161.591 21.8914ZM161.509 19.2885H158.73V16.6452H161.509V19.2885ZM164.343 31.294V28.7554C164.691 28.9933 166.112 29.945 167.697 29.945C168.913 29.945 169.447 29.5881 169.447 28.8958C169.447 26.8187 164.198 28.3509 164.198 24.4062C164.198 22.6218 165.68 21.2561 168.399 21.2561C169.902 21.2561 170.967 21.6559 171.384 21.9081V24.4205C170.523 23.7941 169.499 23.443 168.441 23.4117C167.225 23.4117 166.773 23.79 166.773 24.3777C166.773 26.0764 172.003 24.9011 172.003 28.7649C172.003 30.8634 170.294 32.1838 167.802 32.1838C166.166 32.1743 164.814 31.6081 164.343 31.294Z" fill="#ffffff"/>
<path d="M39.6657 13.0005C39.9271 13.0005 40.2235 13.0338 40.2235 13.0338C39.3465 14.106 38.818 15.4296 38.7111 16.8215C37.0586 17.1033 35.5373 17.9147 34.368 19.1379C33.1987 20.3611 32.4424 21.9324 32.2087 23.6236C30.6987 23.7902 28.9902 24.4944 28.0076 25.5008C27.7742 18.5964 32.9649 13.0005 39.6657 13.0005ZM41.3462 33.7424C41.0371 33.7889 40.725 33.812 40.4126 33.8114C39.8733 33.8048 39.3352 33.7595 38.8021 33.6758C38.3857 34.6979 37.8362 35.6582 37.1684 36.5308C35.0737 36.0599 33.1468 35.0096 31.5995 33.4952C30.0522 31.9808 28.9442 30.061 28.3974 27.9466C29.45 26.6738 31.882 25.9362 33.3921 25.9362C36.6129 25.9362 38.3214 27.6778 38.9142 30.3925C36.9747 29.8571 35.824 28.7508 35.0678 27.1092C34.6259 26.9456 34.1586 26.865 33.6885 26.8712C33.2643 26.8695 32.8426 26.9378 32.4398 27.0735C33.294 30.3925 36.4495 32.8716 40.2935 32.8716C43.8435 32.8716 45.3535 31.0301 45.3535 31.0301V28.2131C45.3535 28.2131 43.6124 30.057 41.4442 30.4258C41.2003 28.7049 40.4148 27.1113 39.206 25.8846C37.9972 24.6579 36.4303 23.8644 34.7411 23.6236C35.2989 20.809 37.4018 19.234 40.2609 19.234C43.12 19.234 45.4212 21.3443 45.4212 21.3443V18.563C45.4212 18.563 43.9415 17.1546 41.3135 16.8548C41.3788 15.6176 42.1677 14.0735 43.0219 13.5025C46.6022 14.6421 50.0541 17.7256 51.039 22.2151C51.039 22.2151 49.4613 23.8235 46.5042 23.8235C44.0722 23.8235 42.5365 22.5839 41.6729 20.4069C41.2199 20.2424 40.7417 20.1619 40.2609 20.169C39.8121 20.164 39.3664 20.2447 38.9469 20.4069C39.8991 23.8925 42.9146 26.236 46.2754 26.236C49.5616 26.236 51.3355 24.6966 51.3355 24.6966C51.3355 31.6653 46.1097 36.6593 39.8991 36.7925C40.6226 36.0788 41.1804 34.5133 41.3462 33.7424Z" fill="#ffffff"/>
</svg>
