<svg width="200" height="50" viewBox="0 0 200 50" fill="none" xmlns="http://www.w3.org/2000/svg">
<path fill-rule="evenodd" clip-rule="evenodd" d="M63.4193 14.567C64.9178 16.9922 64.1965 20.2025 61.7822 21.7163C60.1741 22.7266 58.2389 22.7126 56.6764 21.9092L56.6754 21.9104L56.6505 21.8995L56.6243 21.8883C56.4816 21.828 56.3324 21.7822 56.0718 21.7425C55.7884 21.6991 55.4681 21.73 55.1111 21.834L55.0936 21.8393C54.9197 21.9017 54.7477 21.9857 54.5829 22.0921C53.5529 22.7444 53.2299 24.1109 53.856 25.1447L56.2481 29.017C57.7467 31.4422 57.0253 34.6524 54.6107 36.1662C52.2105 37.6801 49.033 36.9512 47.5342 34.512L45.1892 30.7134C44.5371 29.6618 43.1634 29.3394 42.1365 29.9986C41.8211 30.1989 41.5607 30.4748 41.379 30.8013C41.1973 31.1279 41.1001 31.4946 41.0962 31.8682V31.8907C41.0962 33.6293 40.2494 35.3254 38.6816 36.3067C36.2813 37.8205 33.1039 37.0917 31.6051 34.6524L22.7803 20.3819C21.2818 17.9564 22.0031 14.7465 24.4174 13.232C26.818 11.7182 29.9954 12.447 31.4939 14.8863L33.853 18.6993C34.4985 19.7402 35.8512 20.0664 36.8744 19.4337L36.9056 19.414C37.558 19.0076 37.9185 18.3066 37.9462 17.5918C37.9185 15.8252 38.7787 14.1013 40.3605 13.1059C42.7608 11.5921 45.9386 12.3209 47.4371 14.7602L49.8099 18.6009C50.4622 19.6525 51.8356 19.9749 52.8625 19.316C53.1044 19.1625 53.3291 18.8978 53.5367 18.5217C53.4559 18.6746 53.463 18.6596 53.5585 18.4755C53.7015 18.1999 53.7936 17.9814 53.8348 17.8209C53.8747 17.6655 53.9038 17.5151 53.9222 17.3702C54.1101 15.3845 54.7805 13.9072 56.3427 12.9124C58.743 11.3986 61.9207 12.1274 63.4193 14.5667V14.567Z" fill="#ffffff"/>
<path d="M77.8114 34.6581L81.3978 24.2561L85.1421 34.6581H87.8167L93.1968 19.9818H89.7363L86.3066 29.8816L82.9085 19.9821H79.888L76.4899 29.8813L73.0918 19.9821H69.6306L75.1683 34.6584H77.8111L77.8114 34.6581ZM101.399 34.9724C105.584 34.9724 109.108 31.9241 109.108 27.2728C109.108 22.6221 105.584 19.6678 101.399 19.6678C97.2458 19.6678 93.753 22.6218 93.753 27.2728C93.753 31.9241 97.2458 34.9724 101.399 34.9724ZM101.399 31.8299C98.9762 31.8299 96.9623 30.0383 96.9623 27.2728C96.9623 24.5704 98.9762 22.8418 101.399 22.8418C103.853 22.8418 105.867 24.5704 105.867 27.2728C105.867 30.0383 103.853 31.8299 101.399 31.8299ZM114.887 34.6581V29.3784C114.887 25.4815 116.051 22.7161 118.819 22.7161C119.449 22.7161 120.172 22.8103 120.991 23.2189L121.526 20.2334C121.054 19.9191 119.952 19.6678 118.914 19.6678C117.089 19.6678 115.642 20.7362 114.887 23.3447V19.9821H111.646V34.6584H114.887V34.6581ZM126.36 34.6581V28.8384L131.819 34.6581H136.067L129.098 27.3615L136.067 19.9821H131.819L126.36 25.8217V11.9998H123.151V34.6581H126.36ZM143.655 34.9724C145.48 34.9724 147.62 34.1552 148.595 32.5524V34.6581H151.804V19.9818H148.595V22.0562C147.588 20.3907 145.417 19.6678 143.655 19.6678C139.691 19.6678 136.198 22.6218 136.198 27.3043C136.198 31.9869 139.691 34.9724 143.655 34.9724H143.655ZM144.033 31.8299C141.579 31.8299 139.533 29.9758 139.533 27.2728C139.533 24.5704 141.579 22.8103 144.033 22.8103C146.235 22.8103 148.564 24.3816 148.564 27.2728C148.564 30.164 146.424 31.8299 144.033 31.8299H144.033ZM159.692 34.6581V22.6533H162.807V19.9821H159.692V14.4197H156.451V19.9818H153.808V22.6533H156.451V34.6581H159.692ZM171.291 34.9724C175.476 34.9724 179 31.9241 179 27.2728C179 22.6221 175.476 19.6678 171.291 19.6678C167.138 19.6678 163.646 22.6218 163.646 27.2728C163.646 31.9241 167.138 34.9724 171.291 34.9724ZM171.291 31.8299C168.869 31.8299 166.855 30.0383 166.855 27.2728C166.855 24.5704 168.869 22.8418 171.291 22.8418C173.745 22.8418 175.759 24.5704 175.759 27.2728C175.759 30.0383 173.745 31.8299 171.291 31.8299Z" fill="#ffffff"/>
</svg>
