<svg width="200" height="50" viewBox="0 0 200 50" fill="none" xmlns="http://www.w3.org/2000/svg">
<path d="M32.7766 32.0587V29.8336H26.1827V18.9156H23.6646V32.0587H32.7766ZM39.1109 31.6447C39.6561 31.2308 40.0715 30.6874 40.3571 30.0147V32.0587H42.7713V25.72C42.7713 25.0473 42.6155 24.4264 42.2781 23.9089C41.9407 23.3915 41.4473 22.9775 40.8243 22.6929C40.2013 22.4083 39.4484 22.2531 38.5917 22.2531C38.1244 22.2531 37.6572 22.3048 37.2158 22.3825C36.7745 22.4601 36.3592 22.5894 35.9698 22.7447C35.5804 22.8999 35.2168 23.081 34.9054 23.288L34.9832 25.5389C35.5804 25.1508 36.1514 24.8662 36.7226 24.6592C37.2937 24.4522 37.9168 24.3487 38.6177 24.3487C39.1629 24.3487 39.6042 24.4781 39.9157 24.7368C40.2273 24.9956 40.383 25.3318 40.383 25.7458V26.3926H38.2023C36.9043 26.3926 35.8918 26.6513 35.139 27.1946C34.3862 27.738 34.0228 28.4883 34.0228 29.4456C34.0228 29.9889 34.1526 30.4546 34.3862 30.8944C34.6458 31.3342 34.9832 31.6705 35.4506 31.9034C35.9178 32.1621 36.463 32.2656 37.0601 32.2656C37.8908 32.2656 38.5658 32.0587 39.1109 31.6447ZM36.9303 30.0147C36.6706 29.8077 36.5149 29.5231 36.5149 29.161C36.5149 28.7211 36.6966 28.3848 37.086 28.152C37.4495 27.919 38.0206 27.7897 38.7475 27.7897H40.3051V28.152C40.3051 28.4624 40.2273 28.7729 40.0455 29.1092C39.8638 29.4456 39.6042 29.7302 39.2407 29.963C38.8773 30.1959 38.4619 30.3252 37.9946 30.3252C37.5533 30.3252 37.1899 30.2217 36.9303 30.0147ZM50.4556 31.6188C51.0268 31.1272 51.4421 30.4546 51.7017 29.6267V32.0587H54.142V22.5377H51.7017V26.9877C51.7017 27.6345 51.5978 28.2036 51.3902 28.6953C51.1825 29.1869 50.897 29.6008 50.5076 29.8595C50.1182 30.1441 49.6768 30.2734 49.1836 30.2734C48.6384 30.2734 48.223 30.1182 47.9115 29.8077C47.6259 29.4973 47.4702 29.0316 47.4702 28.4366V22.5377H45.0299V28.4883C45.0299 29.7302 45.3155 30.6615 45.9125 31.3342C46.5096 32.0069 47.2884 32.3433 48.3009 32.3433C49.1836 32.3433 49.8844 32.1103 50.4556 31.6188ZM59.2561 32.0587V27.6087C59.2561 26.9618 59.36 26.3926 59.5677 25.901C59.7753 25.4095 60.0609 24.9956 60.4244 24.7368C60.7878 24.4522 61.2291 24.3228 61.7224 24.3228C62.2676 24.3228 62.6829 24.4781 62.9944 24.7886C63.28 25.099 63.4358 25.5648 63.4358 26.1598V32.0846H65.902V26.1339C65.902 24.892 65.6164 23.9607 65.0194 23.288C64.4222 22.6153 63.6434 22.279 62.631 22.279C61.7743 22.279 61.0734 22.5377 60.5022 23.0034C59.9571 23.495 59.5417 24.1676 59.2561 24.9956V22.5636H56.8159V32.0846H59.2561V32.0587ZM74.1573 32.2656C74.4689 32.2139 74.7804 32.1362 75.04 32.0587C75.3256 31.981 75.5592 31.8775 75.8188 31.8L75.8448 29.4973C75.4554 29.7043 75.04 29.8336 74.5987 29.9371C74.1573 30.0406 73.7161 30.0923 73.2747 30.0923C72.6257 30.0923 72.0545 29.963 71.6133 29.7302C71.1719 29.4973 70.8345 29.161 70.6267 28.7211C70.4191 28.3072 70.3153 27.8156 70.3153 27.2982C70.3153 26.7807 70.4191 26.3151 70.6267 25.8752C70.8345 25.4612 71.1719 25.1249 71.6133 24.8662C72.0545 24.6074 72.5997 24.504 73.2228 24.504C73.7161 24.504 74.1573 24.5557 74.5987 24.6592C75.04 24.7627 75.4294 24.9179 75.8188 25.099L75.7929 22.7188C75.5073 22.6153 75.2477 22.5118 74.9881 22.4601C74.7285 22.3825 74.4429 22.3307 74.1055 22.3048C73.7939 22.2531 73.4565 22.2272 73.093 22.2272C72.0027 22.2272 71.0681 22.4601 70.2633 22.8999C69.4585 23.3397 68.8355 23.9607 68.3942 24.711C67.9529 25.4871 67.7452 26.3409 67.7452 27.3241C67.7452 28.2813 67.9788 29.161 68.4201 29.9113C68.8615 30.6615 69.4845 31.2566 70.2893 31.6705C71.0941 32.0845 72.0287 32.3174 73.093 32.3174C73.4824 32.3433 73.8459 32.3174 74.1573 32.2656ZM80.4658 32.0587V27.6087C80.4658 26.9618 80.5696 26.3926 80.7772 25.901C80.985 25.4095 81.2705 24.9956 81.6599 24.7368C82.0493 24.4522 82.4647 24.3228 82.9579 24.3228C83.529 24.3228 83.9444 24.4781 84.23 24.7886C84.5155 25.099 84.6713 25.5648 84.6713 26.1598V32.0846H87.1115V26.1339C87.1115 24.892 86.826 23.9607 86.2289 23.288C85.6319 22.6153 84.853 22.279 83.8406 22.279C82.9839 22.279 82.257 22.5377 81.7118 23.0034C81.1407 23.495 80.7254 24.1676 80.4658 24.9956V18.9156H78.0514V32.0587H80.4658ZM95.0035 32.0587C96.4054 32.0587 97.5995 31.8 98.586 31.2566C99.5725 30.7133 100.325 29.963 100.845 28.9798C101.364 27.9967 101.623 26.8325 101.623 25.513C101.623 24.1935 101.364 23.0293 100.845 22.0461C100.325 21.063 99.5725 20.2868 98.586 19.7435C97.5995 19.2002 96.4054 18.9415 95.0035 18.9415H89.9412V32.0846H95.0035V32.0587ZM92.4594 29.8336V21.1406H94.9776C96.2496 21.1406 97.2361 21.5287 97.937 22.279C98.6639 23.0551 99.0014 24.1159 99.0014 25.4871C99.0014 26.8584 98.6379 27.9449 97.937 28.6953C97.2101 29.4456 96.2236 29.8336 94.9776 29.8336H92.4594ZM108.01 31.6447C108.555 31.2308 108.97 30.6874 109.256 30.0147V32.0587H111.67V25.72C111.67 25.0473 111.514 24.4264 111.177 23.9089C110.839 23.3915 110.346 22.9775 109.723 22.6929C109.1 22.4083 108.347 22.2531 107.49 22.2531C107.023 22.2531 106.556 22.3048 106.114 22.3825C105.673 22.4601 105.258 22.5894 104.868 22.7447C104.479 22.8999 104.116 23.081 103.804 23.288L103.882 25.5389C104.479 25.1508 105.05 24.8662 105.621 24.6592C106.192 24.4522 106.815 24.3487 107.516 24.3487C108.062 24.3487 108.503 24.4781 108.814 24.7368C109.126 24.9956 109.282 25.3318 109.282 25.7458V26.3926H107.153C105.855 26.3926 104.842 26.6513 104.09 27.1946C103.337 27.738 102.973 28.4883 102.973 29.4456C102.973 29.9889 103.103 30.4546 103.337 30.8944C103.596 31.3342 103.934 31.6705 104.401 31.9034C104.868 32.1621 105.414 32.2656 106.011 32.2656C106.815 32.2656 107.464 32.0587 108.01 31.6447ZM105.829 30.0147C105.569 29.8077 105.414 29.5231 105.414 29.161C105.414 28.7211 105.595 28.3848 105.985 28.152C106.348 27.919 106.919 27.7897 107.646 27.7897H109.204V28.152C109.204 28.4624 109.126 28.7729 108.944 29.1092C108.762 29.4456 108.503 29.7302 108.139 29.963C107.776 30.1959 107.387 30.2993 106.919 30.2993C106.478 30.3252 106.114 30.2217 105.829 30.0147ZM116.602 32.0587V27.9967C116.602 26.9359 116.836 26.1339 117.277 25.5906C117.719 25.0473 118.342 24.7627 119.095 24.7627C119.458 24.7627 119.796 24.8144 120.107 24.9179V22.5636C119.951 22.5118 119.796 22.4859 119.64 22.4601C119.484 22.4342 119.302 22.4342 119.121 22.4342C118.524 22.4342 118.004 22.6412 117.589 23.0551C117.174 23.4691 116.836 24.0641 116.628 24.7886V22.5118H114.188V32.0328H116.602V32.0587ZM124.105 32.0587V28.9798L124.988 28.152L127.843 32.0587H130.751L126.675 26.4961L130.673 22.5377H127.61L124.131 25.901V18.9156H121.717V32.0587H124.105ZM134.671 32.0587V18.9156H132.231V32.0587H134.671ZM138.409 35.6031C139.317 35.6031 140.045 35.422 140.615 35.0598C141.187 34.6976 141.655 34.0508 142.043 33.1452L146.43 22.5377H143.913L141.343 29.1869L138.694 22.5377H136.176L140.097 32.0328L139.889 32.5244C139.759 32.8348 139.604 33.0936 139.37 33.2229C139.162 33.3782 138.824 33.4557 138.383 33.4557H136.358V35.6031H138.409Z" fill="#ffffff"/>
<path d="M164.395 37.2071C164.213 37.2071 164.032 37.1037 163.928 36.9225C163.85 36.7414 163.85 36.5604 163.98 36.4051L169.51 28.8245L159.826 32.7571C159.748 32.783 159.696 32.8089 159.619 32.8089C159.385 32.8089 159.178 32.6537 159.126 32.4466C159.048 32.2397 159.151 32.0068 159.333 31.8775L167.849 26.8842L152.869 26.0304C152.558 26.0045 152.376 25.7716 152.376 25.5129C152.376 25.2801 152.531 25.0214 152.869 24.9955L167.849 24.1417L159.333 19.1484C159.151 19.019 159.048 18.7862 159.126 18.5792C159.203 18.3722 159.385 18.217 159.619 18.217C159.696 18.217 159.748 18.2429 159.826 18.2687L169.51 22.2013L163.98 14.5949C163.877 14.4397 163.85 14.2327 163.928 14.0774C164.006 13.8963 164.188 13.7928 164.395 13.7928C164.525 13.7928 164.655 13.8446 164.758 13.9481L175.767 24.892C175.922 25.0472 176 25.2801 176 25.487C176 25.694 175.922 25.9011 175.767 26.0821L164.758 37.0519C164.655 37.1554 164.525 37.2071 164.395 37.2071Z" fill="#ffffff"/>
</svg>
